<?xml version="1.0" encoding="utf-8"?>
<!-- Generator: Adobe Illustrator 24.1.3, SVG Export Plug-In . SVG Version: 6.00 Build 0)  -->
<svg version="1.1" id="Layer_1" xmlns="http://www.w3.org/2000/svg" xmlns:xlink="http://www.w3.org/1999/xlink" x="0px" y="0px"
	 viewBox="0 0 571.1 163.4" style="enable-background:new 0 0 571.1 163.4;" xml:space="preserve">
<style type="text/css">
	.st0{clip-path:url(#SVGID_2_);}
	.st1{clip-path:url(#SVGID_4_);}
	.st2{clip-path:url(#SVGID_6_);}
	.st3{clip-path:url(#SVGID_8_);}
	.st4{clip-path:url(#SVGID_10_);}
	.st5{clip-path:url(#SVGID_12_);}
	.st6{fill:#231F20;}
</style>
<g>
	<defs>
		<rect id="SVGID_1_" y="0.4" width="84.2" height="130.3"/>
	</defs>
	<clipPath id="SVGID_2_">
		<use xlink:href="#SVGID_1_"  style="overflow:visible;"/>
	</clipPath>
	<g class="st0">
		<g transform="translate(0 449.22) rotate(-90) scale(0.18)">
			
				<image style="overflow:visible;enable-background:new    ;" width="1504" height="2016" id="image" xlink:href="F1DD594CB44E8F8F.png"  transform="matrix(1.102182e-17 -0.18 0.18 1.102182e-17 -39.86 258.53)">
			</image>
		</g>
	</g>
</g>
<g>
	<defs>
		<rect id="SVGID_3_" x="98.9" y="0.4" width="79.1" height="130.3"/>
	</defs>
	<clipPath id="SVGID_4_">
		<use xlink:href="#SVGID_3_"  style="overflow:visible;"/>
	</clipPath>
	<g class="st1">
		<g transform="translate(9.28 449.22) rotate(-90) scale(0.18)">
			
				<image style="overflow:visible;enable-background:new    ;" width="1504" height="2016" id="image_2_" xlink:href="F1DD594CB44E8F8D.png"  transform="matrix(1.102182e-17 -0.18 0.18 1.102182e-17 -30.58 258.53)">
			</image>
		</g>
	</g>
</g>
<g>
	<defs>
		<rect id="SVGID_5_" x="195.3" y="0.4" width="79.1" height="130.3"/>
	</defs>
	<clipPath id="SVGID_6_">
		<use xlink:href="#SVGID_5_"  style="overflow:visible;"/>
	</clipPath>
	<g class="st2">
		<g transform="translate(21.7 448.69) rotate(-90) scale(0.18)">
			
				<image style="overflow:visible;enable-background:new    ;" width="1504" height="2016" id="image_3_" xlink:href="F1DD594CB44E8F93.png"  transform="matrix(1.102182e-17 -0.18 0.18 1.102182e-17 -18.16 258)">
			</image>
		</g>
	</g>
</g>
<g>
	<defs>
		<rect id="SVGID_7_" x="294.2" width="79.1" height="130.3"/>
	</defs>
	<clipPath id="SVGID_8_">
		<use xlink:href="#SVGID_7_"  style="overflow:visible;"/>
	</clipPath>
	<g class="st3">
		
			<image style="overflow:visible;enable-background:new    ;" width="1503" height="2015" xlink:href="F1DD594CB44E8F95.png"  transform="matrix(0.1801 0 0 0.1801 275.0529 -39.41)">
		</image>
	</g>
</g>
<g>
	<defs>
		<rect id="SVGID_9_" x="391" y="0.2" width="79.1" height="130"/>
	</defs>
	<clipPath id="SVGID_10_">
		<use xlink:href="#SVGID_9_"  style="overflow:visible;"/>
	</clipPath>
	<g class="st4">
		
			<image style="overflow:visible;enable-background:new    ;" width="1503" height="2135" xlink:href="F1DD594CB44E8F97.png"  transform="matrix(0.17 0 0 0.1794 379.2197 -190.69)">
		</image>
	</g>
</g>
<g>
	<defs>
		<rect id="SVGID_11_" x="490.7" y="1.1" width="80.5" height="128.2"/>
	</defs>
	<clipPath id="SVGID_12_">
		<use xlink:href="#SVGID_11_"  style="overflow:visible;"/>
	</clipPath>
	<g class="st5">
		
			<image style="overflow:visible;enable-background:new    ;" width="1504" height="2016" xlink:href="F1DD594CB44E8F94.png"  transform="matrix(1.102182e-17 -0.18 0.18 1.102182e-17 446.68 261.76)">
		</image>
	</g>
</g>
<path class="st6" d="M2.8,135H1.4v-0.4h3.4v0.4H3.3v4.3H2.8V135z"/>
<path class="st6" d="M4.5,137.9c0-0.8,0.7-1.5,1.5-1.5c0.8,0,1.5,0.7,1.5,1.5c0,0.8-0.7,1.5-1.5,1.5C5.2,139.4,4.5,138.7,4.5,137.9z
	 M7.1,137.9c0-0.6-0.5-1-1.1-0.9c-0.6,0-1,0.5-0.9,1.1c0,0.5,0.5,0.9,1,0.9C6.6,139,7.1,138.5,7.1,137.9
	C7.1,138,7.1,137.9,7.1,137.9z"/>
<path class="st6" d="M9.8,136.5h0.5l0.6,1.6c0.1,0.1,0.1,0.3,0.1,0.4c0-0.2,0.1-0.3,0.1-0.4l0.8-1.6H12l0.8,1.6
	c0.1,0.1,0.1,0.3,0.1,0.4c0-0.2,0.1-0.3,0.1-0.4l0.6-1.6h0.5l-1.2,3h-0.1l-0.8-1.7c-0.1-0.1-0.1-0.3-0.1-0.4
	c-0.1,0.2-0.1,0.3-0.2,0.4l-0.8,1.7h-0.1L9.8,136.5z"/>
<path class="st6" d="M14.9,136.5h0.5v0.6c0.1-0.4,0.5-0.6,0.8-0.6c0.2,0,0.4,0,0.5,0.1l-0.2,0.4c-0.1-0.1-0.3-0.1-0.4-0.1
	c-0.4,0-0.7,0.3-0.7,1v1.5h-0.5L14.9,136.5z"/>
<path class="st6" d="M17.3,135.3c0-0.2,0.2-0.3,0.4-0.3c0.2,0,0.3,0.2,0.3,0.4c0,0.2-0.2,0.3-0.4,0.3S17.3,135.5,17.3,135.3
	L17.3,135.3z M17.4,136.5h0.5v2.9h-0.5V136.5z"/>
<path class="st6" d="M19.1,138.5v-1.6h-0.5v-0.4h0.5v-1.5h0.5v1.5h0.8v0.4h-0.8v1.6c0,0.4,0.1,0.5,0.3,0.5c0.1,0,0.3-0.1,0.4-0.2
	l0.3,0.3c-0.2,0.2-0.4,0.3-0.7,0.3C19.4,139.4,19.1,139.2,19.1,138.5z"/>
<path class="st6" d="M22.6,139c0.3,0,0.7-0.1,0.9-0.4l0.3,0.3c-0.3,0.3-0.8,0.5-1.2,0.5c-0.8,0.1-1.6-0.6-1.6-1.4
	c-0.1-0.8,0.6-1.6,1.4-1.6c0.8-0.1,1.6,0.6,1.6,1.4c0,0.1,0,0.2,0,0.3h-2.5C21.6,138.6,22.1,139,22.6,139
	C22.6,139,22.6,139,22.6,139z M23.5,137.7c0-0.5-0.4-0.9-0.9-0.9c0,0,0,0-0.1,0c-0.5,0-0.9,0.4-1,0.9H23.5z"/>
<path class="st6" d="M28.3,137.6c0-0.6-0.2-0.8-0.7-0.8c-0.3,0-0.7,0.1-0.8,0.4l-0.3-0.3c0.3-0.4,0.7-0.6,1.2-0.6
	c0.6,0,1.1,0.4,1.1,1c0,0.1,0,0.1,0,0.2v1.8h-0.5v-0.4c-0.2,0.3-0.6,0.5-1,0.5c-0.6,0-1.1-0.3-1.1-0.9s0.5-0.9,1.1-0.9L28.3,137.6
	L28.3,137.6z M27.4,138c-0.4,0-0.7,0.1-0.7,0.5s0.2,0.5,0.7,0.5s0.8-0.2,0.8-0.6V138H27.4z"/>
<path class="st6" d="M31.4,136.5h0.5v0.6c0.2-0.5,0.7-0.7,1.2-0.6c0.1,0,0.1,0.1,0.2,0.1l-0.2,0.4c-0.1-0.1-0.3-0.1-0.4-0.1
	c-0.4,0-0.8,0.3-0.8,1v1.5h-0.5L31.4,136.5z"/>
<path class="st6" d="M35.2,139c0.3,0,0.7-0.1,0.9-0.4l0.3,0.3c-0.3,0.3-0.8,0.5-1.2,0.5c-0.8,0.1-1.6-0.6-1.6-1.4
	c-0.1-0.8,0.6-1.6,1.4-1.6c0.8-0.1,1.6,0.6,1.6,1.4c0,0.1,0,0.2,0,0.3h-2.5C34.2,138.6,34.7,139,35.2,139
	C35.2,139,35.2,139,35.2,139z M36.2,137.7c0-0.5-0.4-0.9-0.9-0.9c0,0,0,0-0.1,0c-0.5,0-0.9,0.4-1,0.9H36.2z"/>
<path class="st6" d="M37,136.5h0.5l0.8,1.7c0.1,0.2,0.1,0.3,0.2,0.5c0-0.2,0.1-0.3,0.2-0.5l0.8-1.7h0.5l-1.4,3h-0.1L37,136.5z"/>
<path class="st6" d="M40.5,135.3c0-0.2,0.2-0.3,0.4-0.3s0.3,0.2,0.3,0.4s-0.2,0.3-0.4,0.3S40.5,135.5,40.5,135.3L40.5,135.3z
	 M40.6,136.5h0.5v2.9h-0.5V136.5z"/>
<path class="st6" d="M43.5,139c0.3,0,0.7-0.1,0.9-0.4l0.3,0.3c-0.3,0.3-0.8,0.5-1.2,0.5c-0.8,0.1-1.6-0.5-1.7-1.3
	c-0.1-0.8,0.5-1.6,1.3-1.7c0.1,0,0.2,0,0.3,0c0.8,0,1.5,0.6,1.5,1.5c0,0.1,0,0.1,0,0.2h-2.5C42.5,138.6,43,139,43.5,139
	C43.5,139,43.5,139,43.5,139z M44.4,137.7c0-0.5-0.4-0.9-0.9-0.9c0,0-0.1,0-0.1,0c-0.5,0-0.9,0.4-1,0.9H44.4z"/>
<path class="st6" d="M45.4,136.5h0.5l0.6,1.6c0.1,0.1,0.1,0.3,0.1,0.4c0-0.2,0.1-0.3,0.1-0.4l0.8-1.6h0.1l0.8,1.6
	c0.1,0.1,0.1,0.3,0.2,0.4c0-0.2,0.1-0.3,0.1-0.4l0.6-1.6h0.5l-1.2,3h-0.1l-0.7-1.7c-0.1-0.1-0.1-0.3-0.1-0.4c0,0.1-0.1,0.3-0.1,0.4
	l-0.8,1.7h-0.1L45.4,136.5z"/>
<path class="st6" d="M51.9,138.7l0.4-0.2c0.2,0.3,0.5,0.5,0.8,0.5c0.4,0,0.6-0.2,0.6-0.4s-0.2-0.4-0.8-0.5s-0.9-0.3-0.9-0.9
	s0.4-0.8,1-0.8c0.4,0,0.8,0.1,1,0.5l-0.3,0.3c-0.1-0.2-0.4-0.3-0.6-0.3c-0.3,0-0.5,0.1-0.5,0.4s0.2,0.4,0.7,0.5s1,0.3,1,0.9
	s-0.3,0.9-1,0.9C52.7,139.5,52.2,139.2,51.9,138.7z"/>
<path class="st6" d="M55.1,138.5v-1.6h-0.5v-0.4h0.5v-1.5h0.5v1.5h0.8v0.4h-0.8v1.6c0,0.4,0.1,0.5,0.3,0.5c0.2,0,0.3-0.1,0.4-0.2
	l0.3,0.3c-0.2,0.2-0.4,0.3-0.7,0.3C55.5,139.4,55.1,139.2,55.1,138.5z"/>
<path class="st6" d="M59.1,137.6c0-0.6-0.2-0.8-0.7-0.8c-0.3,0-0.7,0.1-0.8,0.4l-0.3-0.3c0.3-0.4,0.7-0.6,1.2-0.6
	c0.6,0,1.1,0.4,1.1,1c0,0.1,0,0.1,0,0.2v1.8h-0.5v-0.4c-0.2,0.4-0.6,0.5-1,0.5c-0.6,0-1.1-0.3-1.1-0.9s0.5-0.9,1.1-0.9L59.1,137.6
	L59.1,137.6z M58.3,138c-0.4,0-0.7,0.1-0.7,0.5s0.2,0.5,0.7,0.5s0.8-0.2,0.8-0.6V138H58.3z"/>
<path class="st6" d="M60.6,136.5h0.5v0.6c0.1-0.4,0.5-0.6,0.8-0.6c0.2,0,0.4,0,0.5,0.1l-0.2,0.4c-0.1-0.1-0.3-0.1-0.4-0.1
	c-0.4,0-0.8,0.3-0.8,1v1.5h-0.5L60.6,136.5z"/>
<path class="st6" d="M63.3,138.5v-1.6h-0.4v-0.4h0.4v-1.5h0.5v1.5h0.8v0.4h-0.8v1.6c0,0.4,0.1,0.5,0.3,0.5c0.1,0,0.3-0.1,0.4-0.2
	l0.3,0.3c-0.2,0.2-0.4,0.3-0.7,0.3C63.7,139.4,63.3,139.2,63.3,138.5z"/>
<path class="st6" d="M67.1,135.3c0-0.2,0.2-0.3,0.4-0.3c0.2,0,0.3,0.2,0.3,0.4c0,0.2-0.2,0.3-0.4,0.3c0,0,0,0,0,0
	C67.2,135.6,67.1,135.5,67.1,135.3z M67.2,136.5h0.5v2.9h-0.5V136.5z"/>
<path class="st6" d="M68.7,136.5h0.5v0.6c0.2-0.4,0.6-0.7,1-0.7c0.6,0,1.1,0.5,1.1,1c0,0.1,0,0.1,0,0.2v1.8h-0.5v-1.7
	c0-0.5-0.2-0.8-0.7-0.8c-0.5,0-0.9,0.3-0.9,0.8c0,0,0,0.1,0,0.1v1.6h-0.5L68.7,136.5z"/>
<path class="st6" d="M74.2,138.5v-1.6h-0.4v-0.4h0.4v-1.5h0.5v1.5h0.8v0.4h-0.8v1.6c0,0.4,0.1,0.5,0.3,0.5c0.2,0,0.3-0.1,0.4-0.2
	l0.3,0.3c-0.2,0.2-0.4,0.3-0.7,0.3C74.5,139.4,74.2,139.2,74.2,138.5z"/>
<path class="st6" d="M76.3,134.3h0.5v2.7c0.2-0.4,0.6-0.6,1-0.6c0.6,0,1.1,0.5,1.1,1.1c0,0,0,0.1,0,0.1v1.8h-0.5v-1.7
	c0-0.5-0.2-0.8-0.7-0.8c-0.5,0-0.9,0.3-0.9,0.8c0,0,0,0.1,0,0.1v1.6h-0.5L76.3,134.3z"/>
<path class="st6" d="M81.3,139c0.3,0,0.7-0.1,0.9-0.4l0.3,0.3c-0.3,0.3-0.8,0.5-1.2,0.5c-0.8,0.1-1.6-0.6-1.6-1.4
	c-0.1-0.8,0.6-1.6,1.4-1.6c0.8-0.1,1.6,0.6,1.6,1.4c0,0.1,0,0.2,0,0.3h-2.5C80.3,138.6,80.8,139,81.3,139
	C81.3,139,81.3,139,81.3,139z M82.2,137.7c0-0.5-0.4-0.9-0.9-0.9c0,0,0,0-0.1,0c-0.5,0-0.9,0.4-1,0.9H82.2z"/>
<path class="st6" d="M3.8,142.9L3.8,142.9l2.3,2.8l2.2-2.8h0.1v4.8H7.8v-3.1c0-0.2,0-0.6,0-0.6c-0.1,0.2-0.2,0.3-0.3,0.5l-1.4,1.8H6
	l-1.4-1.8c-0.1-0.2-0.3-0.5-0.3-0.5s0,0.3,0,0.6v3.1H3.8V142.9z"/>
<path class="st6" d="M10.3,147.5l-1.2-2.6h0.5l0.8,1.8c0.1,0.2,0.1,0.3,0.1,0.5c0-0.2,0.1-0.3,0.1-0.5l0.8-1.8h0.5l-1.9,4.4H9.6
	L10.3,147.5z"/>
<path class="st6" d="M14,146.8l0.4-0.2c0.2,0.5,0.7,0.8,1.2,0.7c0.6,0,1-0.3,1-0.8s-0.3-0.7-0.9-1l-0.4-0.2c-0.7-0.3-1-0.6-1-1.3
	c0-0.6,0.5-1.1,1.2-1.1c0,0,0.1,0,0.1,0c0.5,0,1,0.2,1.3,0.7l-0.4,0.2c-0.2-0.3-0.5-0.5-0.9-0.5c-0.4,0-0.7,0.2-0.7,0.6
	c0,0,0,0.1,0,0.1c0,0.4,0.2,0.6,0.8,0.9l0.4,0.2c0.8,0.4,1.2,0.7,1.2,1.4c0,0.7-0.6,1.3-1.3,1.3c0,0-0.1,0-0.1,0
	C15,147.8,14.3,147.5,14,146.8z"/>
<path class="st6" d="M18,144.8h0.5v0.6c0.2-0.4,0.7-0.7,1.1-0.7c0.8,0.1,1.4,0.8,1.3,1.7c-0.1,0.7-0.6,1.2-1.3,1.3
	c-0.5,0-0.9-0.2-1.1-0.6v2.1H18L18,144.8z M20.5,146.3c0-0.6-0.4-1-0.9-1.1c0,0,0,0-0.1,0c-0.6,0-1,0.4-1,1c0,0,0,0,0,0.1
	c0,0.6,0.4,1,0.9,1.1c0,0,0.1,0,0.1,0C20.1,147.4,20.5,146.9,20.5,146.3C20.5,146.3,20.5,146.3,20.5,146.3z"/>
<path class="st6" d="M21.7,146.3c0-0.8,0.7-1.5,1.5-1.5c0.8,0,1.5,0.7,1.5,1.5c0,0.8-0.7,1.5-1.5,1.5
	C22.4,147.8,21.7,147.1,21.7,146.3z M24.2,146.3c0-0.6-0.5-1-1.1-0.9c-0.6,0-1,0.5-0.9,1.1c0,0.5,0.5,0.9,1,0.9
	C23.8,147.4,24.2,146.9,24.2,146.3C24.2,146.3,24.2,146.3,24.2,146.3z"/>
<path class="st6" d="M25.7,146.9v-1.6h-0.5v-0.4h0.5v-1.5h0.5v1.5H27v0.4h-0.8v1.6c0,0.4,0.1,0.5,0.3,0.5c0.1,0,0.3-0.1,0.4-0.2
	l0.3,0.3c-0.2,0.2-0.4,0.3-0.7,0.3C26.1,147.8,25.7,147.6,25.7,146.9z"/>
<path class="st6" d="M27.6,147.1l0.4-0.2c0.2,0.3,0.5,0.5,0.8,0.5c0.4,0,0.6-0.2,0.6-0.4s-0.2-0.4-0.8-0.5s-0.9-0.3-0.9-0.9
	s0.4-0.8,1-0.8c0.4,0,0.8,0.1,1,0.5l-0.3,0.3c-0.1-0.2-0.4-0.3-0.6-0.3c-0.3,0-0.5,0.1-0.5,0.4s0.2,0.4,0.7,0.5s1,0.3,1,0.9
	s-0.3,0.9-1.1,0.9C28.4,147.9,27.9,147.6,27.6,147.1z"/>
<path class="st6" d="M32.4,144.8h0.5v0.6c0.2-0.4,0.6-0.7,1.1-0.7c0.8,0.1,1.4,0.8,1.3,1.7c-0.1,0.7-0.6,1.2-1.3,1.3
	c-0.5,0-0.9-0.2-1.1-0.6v2.1h-0.5L32.4,144.8z M34.9,146.3c0-0.6-0.4-1-0.9-1.1c0,0,0,0-0.1,0c-0.6,0-1,0.4-1,1c0,0,0,0,0,0.1
	c0,0.6,0.4,1,0.9,1.1c0,0,0.1,0,0.1,0C34.5,147.4,34.9,146.9,34.9,146.3C34.9,146.3,34.9,146.3,34.9,146.3z"/>
<path class="st6" d="M38.1,146c0-0.6-0.2-0.8-0.7-0.8c-0.3,0-0.6,0.1-0.8,0.4l-0.3-0.3c0.3-0.4,0.7-0.6,1.2-0.6c0.6,0,1.1,0.4,1.1,1
	c0,0.1,0,0.1,0,0.2v1.8h-0.5v-0.4c-0.2,0.3-0.6,0.5-1,0.5c-0.6,0-1.1-0.3-1.1-0.9s0.5-0.9,1.1-0.9L38.1,146L38.1,146z M37.2,146.4
	c-0.4,0-0.7,0.1-0.7,0.5s0.2,0.5,0.7,0.5s0.8-0.2,0.8-0.6v-0.4H37.2z"/>
<path class="st6" d="M42.2,144.8v0.4h-0.6c0.1,0.2,0.2,0.4,0.2,0.6c0,0.6-0.4,1-1,1c0,0-0.1,0-0.1,0c-0.2,0-0.4,0-0.6-0.1
	c-0.1,0-0.2,0.1-0.2,0.3c0,0.2,0.1,0.3,0.4,0.3H41c0.8,0.1,1.2,0.4,1.2,0.9s-0.6,1-1.5,1s-1.5-0.4-1.5-1c0-0.4,0.3-0.6,0.7-0.8
	c-0.2-0.1-0.4-0.3-0.4-0.5c0-0.2,0.2-0.5,0.4-0.5c-0.2-0.2-0.3-0.4-0.3-0.7c0-0.6,0.5-1,1.1-1c0,0,0,0,0.1,0c0.1,0,0.3,0,0.4,0.1
	L42.2,144.8z M39.7,148.3c0,0.4,0.3,0.6,1,0.6s1-0.2,1-0.6s-0.2-0.5-0.8-0.5h-0.7C39.9,147.8,39.7,148,39.7,148.3z M41.4,145.8
	c0-0.3-0.3-0.6-0.6-0.7c0,0-0.1,0-0.1,0c-0.3,0-0.6,0.2-0.7,0.5c0,0,0,0.1,0,0.1c0,0.3,0.2,0.6,0.6,0.7c0,0,0.1,0,0.1,0
	C41,146.5,41.4,146.2,41.4,145.8C41.4,145.9,41.4,145.8,41.4,145.8z"/>
<path class="st6" d="M44.2,147.4c0.3,0,0.7-0.1,0.9-0.4l0.3,0.3c-0.3,0.3-0.8,0.5-1.2,0.5c-0.8,0.1-1.6-0.5-1.7-1.3
	c-0.1-0.8,0.5-1.6,1.3-1.7c0.1,0,0.2,0,0.3,0c0.8,0,1.5,0.6,1.5,1.4c0,0.1,0,0.2,0,0.2h-2.5C43.1,147,43.6,147.4,44.2,147.4
	C44.1,147.4,44.1,147.4,44.2,147.4z M45,146.1c0-0.5-0.4-0.9-0.9-0.9c0,0-0.1,0-0.1,0c-0.5,0-0.9,0.4-1,0.9H45z"/>
<path class="st6" d="M46.1,147.4c0-0.2,0.2-0.4,0.4-0.4c0.2,0,0.4,0.2,0.4,0.4l0,0c0,0.2-0.2,0.4-0.4,0.4
	C46.3,147.8,46.1,147.6,46.1,147.4z"/>
<path class="st6" d="M49.5,143h2.9v0.4H50v2.2h2.1v0.5H50v1.6h-0.5L49.5,143z"/>
<path class="st6" d="M53.1,143.7c0-0.2,0.2-0.4,0.4-0.4c0.2,0,0.3,0.2,0.3,0.4s-0.2,0.4-0.3,0.4C53.2,144,53.1,143.9,53.1,143.7z
	 M53.2,144.8h0.5v2.9h-0.5V144.8z"/>
<path class="st6" d="M54.7,144.8h0.5v0.6c0.2-0.4,0.6-0.7,1-0.7c0.6,0,1.1,0.4,1.1,1c0,0.1,0,0.1,0,0.2v1.8h-0.5V146
	c0-0.5-0.2-0.8-0.7-0.8c-0.5,0-0.9,0.3-0.9,0.8c0,0,0,0.1,0,0.1v1.6h-0.5L54.7,144.8z"/>
<path class="st6" d="M58.1,146.3c0-0.8,0.6-1.5,1.4-1.5c0,0,0,0,0,0c0.5,0,0.9,0.2,1.1,0.7v-2.7h0.5v5h-0.5v-0.6
	c-0.2,0.4-0.6,0.7-1.1,0.7C58.7,147.8,58.1,147.1,58.1,146.3C58.1,146.3,58.1,146.3,58.1,146.3z M60.7,146.3c0-0.6-0.4-1-0.9-1.1
	c0,0,0,0-0.1,0c-0.6,0-1,0.4-1,1c0,0,0,0,0,0.1c0,0.6,0.4,1,0.9,1.1c0,0,0.1,0,0.1,0C60.2,147.4,60.7,146.9,60.7,146.3
	C60.7,146.3,60.7,146.3,60.7,146.3z"/>
<path class="st6" d="M65.6,146c0-0.6-0.2-0.8-0.7-0.8c-0.3,0-0.7,0.1-0.8,0.4l-0.3-0.3c0.3-0.4,0.7-0.6,1.2-0.6c0.6,0,1.1,0.4,1.1,1
	c0,0.1,0,0.1,0,0.2v1.8h-0.5v-0.4c-0.2,0.3-0.6,0.5-1,0.5c-0.6,0-1.1-0.3-1.1-0.9s0.5-0.9,1.1-0.9L65.6,146L65.6,146z M64.8,146.4
	c-0.4,0-0.7,0.1-0.7,0.5s0.2,0.5,0.7,0.5s0.8-0.2,0.8-0.6v-0.4H64.8z"/>
<path class="st6" d="M68.5,147.1l0.4-0.2c0.2,0.3,0.5,0.5,0.8,0.5c0.4,0,0.6-0.2,0.6-0.4s-0.3-0.4-0.8-0.5s-0.9-0.3-0.9-0.9
	s0.4-0.8,1-0.8c0.4,0,0.8,0.1,1,0.5l-0.3,0.3c-0.1-0.2-0.4-0.3-0.6-0.3c-0.3,0-0.5,0.1-0.5,0.4s0.2,0.4,0.7,0.5s1,0.3,1,0.9
	s-0.3,0.9-1.1,0.9C69.3,147.9,68.8,147.6,68.5,147.1z"/>
<path class="st6" d="M71.6,144.8h0.5v0.6c0.2-0.4,0.6-0.7,1.1-0.7c0.8,0.1,1.4,0.8,1.3,1.7c-0.1,0.7-0.6,1.2-1.3,1.3
	c-0.5,0-0.9-0.2-1.1-0.6v2.1h-0.5L71.6,144.8z M74.1,146.3c0-0.6-0.4-1-0.9-1.1c0,0,0,0-0.1,0c-0.6,0-1,0.4-1,1c0,0,0,0,0,0.1
	c0,0.6,0.4,1,0.9,1.1c0,0,0.1,0,0.1,0C73.7,147.4,74.1,146.9,74.1,146.3C74.1,146.3,74.1,146.3,74.1,146.3z"/>
<path class="st6" d="M75.3,146.3c0-0.8,0.7-1.5,1.5-1.6c0.8,0,1.5,0.7,1.6,1.5c0,0.8-0.7,1.5-1.5,1.6c0,0,0,0,0,0
	C76,147.8,75.3,147.2,75.3,146.3C75.3,146.3,75.3,146.3,75.3,146.3z M77.9,146.3c0-0.6-0.4-1-0.9-1.1c0,0-0.1,0-0.1,0
	c-0.6,0-1.1,0.5-1.1,1.1s0.5,1.1,1.1,1.1C77.4,147.4,77.9,146.9,77.9,146.3C77.9,146.3,77.9,146.3,77.9,146.3z"/>
<path class="st6" d="M79.4,146.9v-1.6h-0.4v-0.4h0.4v-1.5h0.5v1.5h0.8v0.4h-0.8v1.6c0,0.4,0.1,0.5,0.3,0.5c0.1,0,0.3-0.1,0.4-0.2
	l0.3,0.3c-0.2,0.2-0.4,0.3-0.7,0.3C79.7,147.8,79.4,147.6,79.4,146.9z"/>
<path class="st6" d="M28,155.3v-1.6h-0.5v-0.4H28v-1.5h0.5v1.5h0.8v0.4h-0.8v1.6c0,0.4,0.1,0.5,0.3,0.5c0.1,0,0.3-0.1,0.4-0.2
	l0.3,0.3c-0.2,0.2-0.4,0.3-0.7,0.3C28.3,156.2,28,155.9,28,155.3z"/>
<path class="st6" d="M29.9,154.7c0-0.8,0.7-1.5,1.5-1.6s1.5,0.7,1.6,1.5c0,0.8-0.7,1.5-1.5,1.6c0,0,0,0,0,0
	C30.6,156.2,29.9,155.6,29.9,154.7C29.9,154.7,29.9,154.7,29.9,154.7z M32.5,154.7c0-0.6-0.5-1-1.1-0.9c-0.6,0-1,0.5-0.9,1.1
	c0,0.5,0.5,0.9,1,0.9C32,155.8,32.5,155.4,32.5,154.7C32.5,154.8,32.5,154.7,32.5,154.7z"/>
<path class="st6" d="M35.3,154.7c0-0.8,0.6-1.5,1.4-1.5c0,0,0,0,0.1,0c0.4,0,0.9,0.2,1.1,0.5l-0.3,0.3c-0.2-0.2-0.5-0.4-0.8-0.4
	c-0.6,0.2-0.9,0.7-0.8,1.3c0.1,0.4,0.4,0.7,0.7,0.8c0.3,0,0.6-0.1,0.8-0.4l0.3,0.3c-0.3,0.4-0.7,0.5-1.2,0.5
	C36,156.1,35.3,155.5,35.3,154.7z"/>
<path class="st6" d="M38.8,151.1h0.5v5h-0.5V151.1z"/>
<path class="st6" d="M40.3,152.1c0-0.2,0.1-0.4,0.3-0.4c0.2,0,0.4,0.1,0.4,0.3c0,0,0,0.1,0,0.1c0,0.2-0.2,0.3-0.4,0.3
	C40.4,152.3,40.3,152.2,40.3,152.1z M40.4,153.2h0.5v2.9h-0.5V153.2z"/>
<path class="st6" d="M41.7,154.7c0-0.8,0.6-1.5,1.4-1.5c0,0,0,0,0.1,0c0.4,0,0.9,0.2,1.1,0.5L44,154c-0.2-0.2-0.5-0.4-0.8-0.4
	c-0.6,0.1-1,0.6-1,1.2c0,0.5,0.5,0.9,1,1c0.3,0,0.6-0.1,0.8-0.4l0.3,0.3c-0.3,0.4-0.7,0.5-1.2,0.5C42.4,156.2,41.7,155.6,41.7,154.7
	C41.7,154.7,41.7,154.7,41.7,154.7z"/>
<path class="st6" d="M45.7,156.1h-0.5v-5h0.5v3.2c0,0.1,0,0.3,0,0.4l1.4-1.5h0.6l-1.1,1.2l1.3,1.6h-0.6l-1-1.4l-0.5,0.5L45.7,156.1z
	"/>
<path class="st6" d="M49.9,154.7c0-0.9,0.6-1.6,1.5-1.6s1.6,0.6,1.6,1.5s-0.6,1.6-1.5,1.6c0,0,0,0,0,0
	C50.6,156.2,49.9,155.6,49.9,154.7C49.9,154.7,49.9,154.7,49.9,154.7z M52.5,154.7c0-0.6-0.5-1-1.1-0.9c-0.6,0-1,0.5-0.9,1.1
	c0,0.5,0.5,0.9,1,0.9C52,155.8,52.5,155.4,52.5,154.7C52.5,154.8,52.5,154.7,52.5,154.7z"/>
<path class="st6" d="M53.8,153.2h0.5v0.6c0.2-0.4,0.6-0.7,1-0.7c0.6,0,1.1,0.4,1.1,1c0,0.1,0,0.1,0,0.2v1.8h-0.5v-1.7
	c0-0.5-0.2-0.8-0.7-0.8c-0.5,0-0.9,0.3-0.9,0.8c0,0,0,0.1,0,0.1v1.6h-0.5V153.2z"/>
<path class="st6" d="M105.4,137c0-1.4,1.1-2.5,2.4-2.5c1.4,0,2.5,1.1,2.5,2.4c0,1.4-1.1,2.5-2.4,2.5c0,0,0,0,0,0
	c-1.3,0-2.4-1-2.4-2.3C105.4,137,105.4,137,105.4,137z M109.7,137c0-1.1-0.9-1.9-2-1.8c-1.1,0-1.9,0.9-1.8,2c0,1,0.9,1.8,1.9,1.8
	c1,0,1.9-0.8,2-1.8C109.8,137.1,109.8,137,109.7,137L109.7,137z"/>
<path class="st6" d="M111.1,136.5h0.5v0.6c0.2-0.4,0.6-0.7,1-0.7c0.6,0,1.1,0.5,1.1,1.1c0,0,0,0.1,0,0.1v1.8h-0.5v-1.7
	c0-0.5-0.2-0.8-0.7-0.8c-0.5,0-0.9,0.3-0.9,0.8c0,0,0,0.1,0,0.1v1.6h-0.5L111.1,136.5z"/>
<path class="st6" d="M116.6,138.5v-1.6h-0.4v-0.4h0.4v-1.5h0.5v1.5h0.8v0.4H117v1.6c0,0.4,0.1,0.5,0.3,0.5c0.1,0,0.3-0.1,0.4-0.2
	l0.3,0.3c-0.2,0.2-0.4,0.3-0.7,0.3C116.9,139.4,116.6,139.2,116.6,138.5z"/>
<path class="st6" d="M118.5,137.9c0-0.8,0.7-1.5,1.5-1.6s1.5,0.7,1.6,1.5s-0.7,1.5-1.5,1.6c0,0,0,0,0,0
	C119.2,139.4,118.5,138.8,118.5,137.9C118.5,137.9,118.5,137.9,118.5,137.9z M121.1,137.9c0-0.6-0.5-1-1.1-0.9c-0.6,0-1,0.5-0.9,1.1
	c0,0.5,0.5,0.9,1,0.9C120.6,139,121.1,138.5,121.1,137.9C121.1,138,121.1,137.9,121.1,137.9z"/>
<path class="st6" d="M122.5,136.5h0.5v0.6c0.2-0.4,0.6-0.7,1.1-0.7c0.8,0.1,1.4,0.8,1.3,1.7c-0.1,0.7-0.6,1.2-1.3,1.3
	c-0.5,0-0.9-0.2-1.1-0.6v2.1h-0.5L122.5,136.5z M124.9,137.9c0-0.6-0.4-1-0.9-1.1c0,0,0,0-0.1,0c-0.6,0-1,0.4-1,1c0,0,0,0,0,0.1
	c0,0.6,0.4,1,0.9,1.1c0,0,0.1,0,0.1,0C124.5,139,124.9,138.5,124.9,137.9C124.9,138,124.9,137.9,124.9,137.9L124.9,137.9z"/>
<path class="st6" d="M129.8,137.6c0-0.6-0.2-0.8-0.7-0.8c-0.3,0-0.7,0.1-0.9,0.4L128,137c0.3-0.4,0.7-0.6,1.2-0.6
	c0.6,0,1.1,0.4,1.1,1c0,0.1,0,0.1,0,0.2v1.8h-0.5v-0.4c-0.2,0.3-0.6,0.5-1,0.5c-0.6,0-1.1-0.3-1.1-0.9s0.5-0.9,1.1-0.9L129.8,137.6
	L129.8,137.6z M128.9,138c-0.4,0-0.7,0.1-0.7,0.5s0.2,0.5,0.7,0.5s0.8-0.2,0.8-0.6V138H128.9z"/>
<path class="st6" d="M131.2,136.5h0.5v0.6c0.1-0.4,0.5-0.6,0.8-0.6c0.2,0,0.4,0,0.5,0.1l-0.2,0.4c-0.1-0.1-0.3-0.1-0.4-0.1
	c-0.4,0-0.8,0.3-0.8,1v1.5h-0.5L131.2,136.5z"/>
<path class="st6" d="M135,139c0.3,0,0.7-0.1,0.9-0.4l0.3,0.3c-0.3,0.3-0.8,0.5-1.2,0.5c-0.8,0.1-1.6-0.6-1.6-1.4
	c-0.1-0.8,0.6-1.6,1.4-1.6c0.8-0.1,1.6,0.6,1.6,1.4c0,0.1,0,0.2,0,0.3H134C134,138.6,134.5,139,135,139C135,139,135,139,135,139z
	 M135.9,137.7c0-0.5-0.4-0.9-0.9-0.9c0,0,0,0-0.1,0c-0.5,0-0.9,0.4-1,0.9H135.9z"/>
<path class="st6" d="M138.8,135.3c0-0.2,0.2-0.3,0.4-0.3s0.3,0.2,0.3,0.4s-0.2,0.3-0.3,0.3S138.8,135.5,138.8,135.3L138.8,135.3z
	 M138.9,136.5h0.5v2.9h-0.5V136.5z"/>
<path class="st6" d="M140.5,136.5h0.5v0.6c0.2-0.4,0.5-0.6,0.9-0.6c0.4,0,0.8,0.2,0.9,0.6c0.2-0.4,0.6-0.6,1-0.6c0.6,0,1,0.4,1,1
	c0,0,0,0.1,0,0.1v1.9h-0.5v-1.8c0-0.5-0.2-0.7-0.6-0.7s-0.8,0.3-0.8,0.9v1.6h-0.5v-1.8c0-0.5-0.2-0.7-0.6-0.7
	c-0.4,0-0.8,0.3-0.8,0.8c0,0,0,0.1,0,0.1v1.6h-0.5L140.5,136.5z"/>
<path class="st6" d="M147.6,137.6c0-0.6-0.2-0.8-0.7-0.8c-0.3,0-0.7,0.1-0.9,0.4l-0.3-0.3c0.3-0.4,0.7-0.6,1.2-0.6
	c0.6,0,1.1,0.4,1.1,1c0,0.1,0,0.1,0,0.2v1.8h-0.5v-0.4c-0.2,0.4-0.6,0.5-1,0.5c-0.6,0-1.1-0.3-1.1-0.9s0.5-0.9,1.1-0.9L147.6,137.6
	L147.6,137.6z M146.7,138c-0.4,0-0.7,0.1-0.7,0.5s0.2,0.5,0.7,0.5s0.8-0.2,0.8-0.6V138H146.7z"/>
<path class="st6" d="M151.7,136.5v0.4h-0.6c0.2,0.2,0.2,0.4,0.2,0.6c0,0.6-0.4,1-1,1c0,0-0.1,0-0.1,0c-0.2,0-0.4,0-0.6-0.1
	c-0.1,0-0.2,0.1-0.2,0.3c0,0.2,0.1,0.3,0.4,0.3l0.7,0.1c0.8,0.1,1.2,0.4,1.2,0.9s-0.6,1-1.5,1s-1.5-0.4-1.5-0.9
	c0-0.4,0.3-0.6,0.7-0.8c-0.2-0.1-0.4-0.3-0.4-0.5c0-0.2,0.2-0.5,0.4-0.5c-0.2-0.2-0.3-0.4-0.3-0.7c0-0.6,0.5-1,1.1-1c0,0,0,0,0,0
	c0.1,0,0.3,0,0.4,0.1L151.7,136.5z M149.2,139.9c0,0.4,0.3,0.6,1,0.6s1-0.2,1-0.6s-0.2-0.5-0.8-0.5h-0.7
	C149.4,139.4,149.2,139.6,149.2,139.9z M150.9,137.4c0-0.4-0.3-0.7-0.6-0.7c-0.4,0-0.7,0.3-0.7,0.6c0,0.4,0.3,0.7,0.6,0.7
	c0,0,0,0,0.1,0C150.5,138.1,150.8,137.8,150.9,137.4C150.9,137.5,150.9,137.4,150.9,137.4z"/>
<path class="st6" d="M153.6,139c0.3,0,0.7-0.1,0.9-0.4l0.3,0.3c-0.3,0.3-0.8,0.5-1.2,0.5c-0.8,0.1-1.6-0.6-1.6-1.4
	c-0.1-0.8,0.6-1.6,1.4-1.6c0.8-0.1,1.6,0.6,1.6,1.4c0,0.1,0,0.2,0,0.3h-2.5C152.6,138.6,153.1,139,153.6,139
	C153.6,139,153.6,139,153.6,139z M154.5,137.7c0-0.5-0.4-0.9-0.9-0.9c0,0,0,0-0.1,0c-0.5,0-0.9,0.4-1,0.9H154.5z"/>
<path class="st6" d="M155.6,138.7l0.4-0.2c0.2,0.3,0.5,0.5,0.8,0.5c0.4,0,0.6-0.2,0.6-0.4s-0.2-0.4-0.8-0.5s-0.9-0.3-0.9-0.9
	s0.4-0.8,1-0.8c0.4,0,0.8,0.1,1,0.5l-0.3,0.3c-0.1-0.2-0.4-0.3-0.6-0.3c-0.3,0-0.5,0.1-0.5,0.4s0.2,0.4,0.7,0.5s0.9,0.3,0.9,0.9
	s-0.3,0.9-1,0.9C156.4,139.5,155.9,139.2,155.6,138.7z"/>
<path class="st6" d="M160.2,137.9c0-0.8,0.7-1.5,1.5-1.6c0.8,0,1.5,0.7,1.6,1.5c0,0.8-0.7,1.5-1.5,1.6c0,0,0,0,0,0
	C160.9,139.4,160.2,138.8,160.2,137.9C160.2,137.9,160.2,137.9,160.2,137.9z M162.8,137.9c0-0.6-0.4-1-0.9-1.1c0,0-0.1,0-0.1,0
	c-0.6,0-1.1,0.5-1.1,1.1s0.5,1.1,1.1,1.1c0.6,0,1-0.4,1-1C162.8,138,162.8,137.9,162.8,137.9L162.8,137.9z"/>
<path class="st6" d="M164.2,136.9h-0.4v-0.4h0.5v-1.3c0-0.6,0.3-0.9,0.8-0.9c0.3,0,0.6,0.1,0.7,0.4l-0.3,0.3
	c-0.1-0.1-0.2-0.2-0.4-0.2c-0.2,0-0.4,0.1-0.4,0.5v1.3h0.8v0.4h-0.8v2.5h-0.5L164.2,136.9z"/>
<path class="st6" d="M168.1,138.5v-1.6h-0.4v-0.4h0.4v-1.5h0.5v1.5h0.8v0.4h-0.8v1.6c0,0.4,0.1,0.5,0.4,0.5c0.1,0,0.3-0.1,0.4-0.2
	l0.3,0.3c-0.2,0.2-0.4,0.3-0.7,0.3C168.4,139.4,168.1,139.2,168.1,138.5z"/>
<path class="st6" d="M170.3,134.3h0.5v2.7c0.2-0.4,0.6-0.6,1-0.6c0.6,0,1.1,0.5,1.1,1.1c0,0,0,0.1,0,0.1v1.8h-0.5v-1.7
	c0-0.5-0.2-0.8-0.7-0.8c-0.5,0-0.9,0.3-0.9,0.8c0,0,0,0.1,0,0.1v1.6h-0.5L170.3,134.3z"/>
<path class="st6" d="M175.3,139c0.3,0,0.7-0.1,0.9-0.4l0.3,0.3c-0.3,0.3-0.8,0.5-1.2,0.5c-0.8,0.1-1.6-0.6-1.6-1.4
	c-0.1-0.8,0.6-1.6,1.4-1.6c0.8-0.1,1.6,0.6,1.6,1.4c0,0.1,0,0.2,0,0.3h-2.5C174.2,138.6,174.7,139,175.3,139
	C175.3,139,175.3,139,175.3,139z M176.2,137.7c0-0.5-0.4-0.9-0.9-0.9c0,0,0,0-0.1,0c-0.5,0-0.9,0.4-1,0.9H176.2z"/>
<path class="st6" d="M104.6,147.1l0.4-0.2c0.2,0.3,0.5,0.5,0.8,0.5c0.4,0,0.6-0.2,0.6-0.4s-0.3-0.4-0.8-0.5s-0.9-0.3-0.9-0.9
	s0.4-0.8,1-0.8c0.4,0,0.8,0.1,1,0.5l-0.3,0.3c-0.1-0.2-0.4-0.3-0.6-0.3c-0.3,0-0.5,0.1-0.5,0.4s0.2,0.4,0.7,0.5s1,0.3,1,0.9
	s-0.3,0.9-1.1,0.9C105.4,147.9,104.8,147.6,104.6,147.1z"/>
<path class="st6" d="M107.7,144.8h0.5v0.6c0.2-0.4,0.6-0.7,1.1-0.7c0.8,0.1,1.4,0.8,1.3,1.7c-0.1,0.7-0.6,1.2-1.3,1.3
	c-0.5,0-0.9-0.2-1.1-0.6v2.1h-0.5L107.7,144.8z M110.2,146.3c0-0.6-0.4-1-0.9-1.1c0,0,0,0-0.1,0c-0.6,0-1,0.4-1,1c0,0,0,0,0,0.1
	c0,0.6,0.4,1,0.9,1.1c0,0,0.1,0,0.1,0C109.7,147.4,110.2,146.9,110.2,146.3C110.2,146.3,110.2,146.3,110.2,146.3z"/>
<path class="st6" d="M111.4,146.3c0-0.8,0.7-1.5,1.5-1.6c0.8,0,1.5,0.7,1.6,1.5c0,0.8-0.7,1.5-1.5,1.6c0,0,0,0,0,0
	C112.1,147.8,111.4,147.2,111.4,146.3C111.4,146.3,111.4,146.3,111.4,146.3z M113.9,146.3c0-0.6-0.4-1-0.9-1.1c0,0-0.1,0-0.1,0
	c-0.6,0-1.1,0.5-1.1,1.1s0.5,1.1,1.1,1.1C113.5,147.4,113.9,146.9,113.9,146.3C113.9,146.3,113.9,146.3,113.9,146.3z"/>
<path class="st6" d="M115.4,146.9v-1.6H115v-0.4h0.4v-1.5h0.5v1.5h0.8v0.4h-0.8v1.6c0,0.4,0.1,0.5,0.3,0.5c0.1,0,0.3-0.1,0.4-0.2
	l0.3,0.3c-0.2,0.2-0.4,0.3-0.7,0.3C115.8,147.8,115.4,147.6,115.4,146.9z"/>
<path class="st6" d="M117.5,147.4c0-0.2,0.2-0.4,0.4-0.4c0.2,0,0.4,0.2,0.4,0.4s-0.2,0.4-0.4,0.4
	C117.7,147.8,117.5,147.6,117.5,147.4z"/>
<path class="st6" d="M120.9,143h1.6c0.6-0.1,1.2,0.4,1.3,1c0,0.1,0,0.1,0,0.2c0,0.4-0.2,0.8-0.6,0.9c0.6,0.1,1,0.6,1,1.2
	c0,0.7-0.5,1.4-1.3,1.4c-0.1,0-0.2,0-0.2,0h-1.8V143z M122.5,145c0.4,0.1,0.7-0.2,0.8-0.6c0-0.1,0-0.1,0-0.2c0-0.4-0.2-0.8-0.8-0.8
	h-1.1v1.5H122.5z M122.6,147.3c0.5,0.1,0.9-0.3,1-0.8c0-0.1,0-0.1,0-0.2c0.1-0.5-0.3-1-0.8-1c-0.1,0-0.2,0-0.2,0h-1.2v1.9
	L122.6,147.3z"/>
<path class="st6" d="M126.4,147.4c0.3,0,0.7-0.1,0.9-0.4l0.3,0.3c-0.3,0.3-0.8,0.5-1.2,0.5c-0.8,0.1-1.6-0.6-1.6-1.4
	c-0.1-0.8,0.6-1.6,1.4-1.6c0.8-0.1,1.6,0.6,1.6,1.4c0,0.1,0,0.2,0,0.3h-2.5C125.4,147,125.8,147.4,126.4,147.4
	C126.4,147.4,126.4,147.4,126.4,147.4z M127.3,146.1c0-0.5-0.4-0.9-0.9-0.9c0,0,0,0-0.1,0c-0.5,0-0.9,0.4-1,0.9H127.3z"/>
<path class="st6" d="M128.7,142.7h0.5v5h-0.5V142.7z"/>
<path class="st6" d="M130,146.3c0-0.8,0.7-1.5,1.5-1.6c0.8,0,1.5,0.7,1.6,1.5c0,0.8-0.7,1.5-1.5,1.6c0,0,0,0,0,0
	C130.8,147.8,130.1,147.2,130,146.3C130,146.3,130,146.3,130,146.3z M132.6,146.3c0-0.6-0.4-1-0.9-1.1c0,0-0.1,0-0.1,0
	c-0.6,0-1.1,0.5-1.1,1.1s0.5,1.1,1.1,1.1C132.2,147.4,132.6,146.9,132.6,146.3C132.6,146.3,132.6,146.3,132.6,146.3z"/>
<path class="st6" d="M133.5,144.8h0.5l0.6,1.6c0.1,0.1,0.1,0.3,0.1,0.4c0-0.2,0.1-0.3,0.1-0.4l0.8-1.6h0.1l0.8,1.6
	c0.1,0.1,0.1,0.3,0.1,0.4c0-0.2,0.1-0.3,0.1-0.4l0.6-1.6h0.5l-1.2,3h-0.1l-0.8-1.7c-0.1-0.1-0.1-0.3-0.1-0.4c0,0.1-0.1,0.3-0.1,0.4
	l-0.8,1.7h-0.1L133.5,144.8z"/>
<path class="st6" d="M140.2,143.7c0-0.2,0.2-0.4,0.3-0.4s0.4,0.2,0.4,0.3c0,0,0,0,0,0c0,0.2-0.2,0.3-0.4,0.3
	C140.4,144,140.2,143.9,140.2,143.7z M140.3,144.8h0.5v2.9h-0.5L140.3,144.8z"/>
<path class="st6" d="M141.6,147.1l0.4-0.2c0.2,0.3,0.5,0.5,0.8,0.5c0.4,0,0.6-0.2,0.6-0.4s-0.2-0.4-0.8-0.5s-0.9-0.3-0.9-0.9
	s0.4-0.8,1-0.8c0.4,0,0.8,0.1,1,0.5l-0.3,0.3c-0.1-0.2-0.4-0.3-0.6-0.3c-0.3,0-0.5,0.1-0.5,0.4s0.2,0.4,0.7,0.5s0.9,0.3,0.9,0.9
	s-0.3,0.9-1,0.9C142.4,147.9,141.9,147.6,141.6,147.1z"/>
<path class="st6" d="M146.6,146.9v-1.6h-0.4v-0.4h0.4v-1.5h0.5v1.5h0.8v0.4H147v1.6c0,0.4,0.1,0.5,0.3,0.5c0.1,0,0.3-0.1,0.4-0.2
	l0.3,0.3c-0.2,0.2-0.4,0.3-0.7,0.3C146.9,147.8,146.6,147.6,146.6,146.9z"/>
<path class="st6" d="M148.8,142.7h0.5v2.7c0.2-0.4,0.6-0.6,1-0.6c0.6,0,1.1,0.4,1.1,1c0,0.1,0,0.1,0,0.2v1.7h-0.5V146
	c0-0.5-0.2-0.8-0.7-0.8c-0.5,0-0.9,0.3-0.9,0.8c0,0,0,0.1,0,0.1v1.6h-0.5V142.7z"/>
<path class="st6" d="M153.7,147.4c0.3,0,0.7-0.1,0.9-0.4l0.3,0.3c-0.3,0.3-0.8,0.5-1.2,0.5c-0.8,0.1-1.6-0.5-1.7-1.3
	c-0.1-0.8,0.5-1.6,1.3-1.7c0.1,0,0.2,0,0.3,0c0.8,0,1.5,0.6,1.5,1.4c0,0.1,0,0.2,0,0.2h-2.5C152.7,147,153.2,147.4,153.7,147.4
	C153.7,147.4,153.7,147.4,153.7,147.4z M154.6,146.1c0-0.5-0.4-0.9-0.9-0.9c0,0-0.1,0-0.1,0c-0.5,0-0.9,0.4-1,0.9H154.6z"/>
<path class="st6" d="M160.8,147.7h-0.6l-0.9-1.3c-0.2,0-0.3,0-0.5,0h-0.6v1.3h-0.4V143h1c0.9-0.2,1.8,0.5,2,1.4c0,0.1,0,0.2,0,0.3
	c0,0.7-0.4,1.3-1,1.5L160.8,147.7z M158.8,146c1.1,0,1.5-0.6,1.5-1.3s-0.4-1.3-1.5-1.3h-0.5v2.6H158.8z"/>
<path class="st6" d="M162.9,147.4c0.3,0,0.7-0.1,0.9-0.4l0.3,0.3c-0.3,0.3-0.8,0.5-1.2,0.5c-0.8,0.1-1.6-0.6-1.6-1.4
	s0.6-1.6,1.4-1.6c0.8-0.1,1.6,0.6,1.6,1.4c0,0.1,0,0.2,0,0.3h-2.5C161.9,147,162.4,147.4,162.9,147.4
	C162.9,147.4,162.9,147.4,162.9,147.4z M163.8,146.1c0-0.5-0.4-0.9-0.9-0.9c0,0,0,0-0.1,0c-0.5,0-0.9,0.4-1,0.9H163.8z"/>
<path class="st6" d="M164.7,144.8h0.5l0.8,1.7c0.1,0.2,0.1,0.3,0.2,0.5c0-0.2,0.1-0.3,0.2-0.5l0.8-1.7h0.5l-1.4,2.9h-0.1
	L164.7,144.8z"/>
<path class="st6" d="M168.2,143.7c0-0.2,0.2-0.3,0.4-0.3c0.2,0,0.3,0.2,0.3,0.3c0,0.2-0.2,0.3-0.4,0.3
	C168.4,144,168.2,143.9,168.2,143.7z M168.3,144.8h0.5v2.9h-0.5L168.3,144.8z"/>
<path class="st6" d="M171.2,147.4c0.4,0,0.7-0.1,0.9-0.4l0.3,0.3c-0.3,0.3-0.8,0.5-1.2,0.5c-0.8,0-1.5-0.6-1.6-1.4c0,0,0-0.1,0-0.1
	c0-0.8,0.6-1.5,1.4-1.5c0,0,0,0,0.1,0c0.8,0,1.5,0.6,1.5,1.5c0,0.1,0,0.1,0,0.2h-2.5C170.2,147,170.7,147.4,171.2,147.4
	C171.2,147.4,171.2,147.4,171.2,147.4z M172.1,146.1c0-0.5-0.4-0.9-0.9-0.9c0,0-0.1,0-0.1,0c-0.5,0-0.9,0.4-1,0.9H172.1z"/>
<path class="st6" d="M173.1,144.8h0.5l0.6,1.6c0.1,0.1,0.1,0.3,0.1,0.4c0-0.2,0.1-0.3,0.1-0.4l0.8-1.6h0.1l0.8,1.6
	c0.1,0.1,0.1,0.3,0.1,0.4c0-0.2,0.1-0.3,0.1-0.4l0.6-1.6h0.5l-1.2,3h-0.1l-0.8-1.7c-0.1-0.1-0.1-0.3-0.1-0.4c0,0.1-0.1,0.3-0.1,0.4
	l-0.8,1.7h-0.1L173.1,144.8z"/>
<path class="st6" d="M131.5,155.5v0.6h-0.5v-5h0.5v2.8c0.2-0.4,0.7-0.7,1.1-0.7c0.8,0.1,1.4,0.8,1.3,1.7c-0.1,0.7-0.6,1.2-1.3,1.3
	C132.2,156.2,131.7,155.9,131.5,155.5z M133.5,154.7c0-0.6-0.4-1-0.9-1.1c0,0,0,0-0.1,0c-0.6,0.1-1,0.6-1,1.2c0,0.5,0.5,0.9,1,1
	c0.6,0,1-0.4,1-1C133.6,154.8,133.6,154.7,133.5,154.7L133.5,154.7z"/>
<path class="st6" d="M134.9,155v-1.8h0.5v1.7c0,0.5,0.2,0.8,0.7,0.8c0.5,0,0.9-0.3,0.9-0.8c0,0,0-0.1,0-0.1v-1.6h0.5v2.9H137v-0.6
	c-0.2,0.4-0.6,0.6-1,0.6c-0.6,0-1.1-0.4-1.1-1C134.9,155.1,134.9,155.1,134.9,155z"/>
<path class="st6" d="M138.7,155.3v-1.6h-0.4v-0.4h0.4v-1.5h0.5v1.5h0.8v0.4h-0.8v1.6c0,0.4,0.1,0.5,0.3,0.5c0.1,0,0.3-0.1,0.4-0.2
	l0.3,0.3c-0.2,0.2-0.4,0.3-0.7,0.3C139,156.2,138.7,155.9,138.7,155.3z"/>
<path class="st6" d="M141,155.3v-1.6h-0.4v-0.4h0.4v-1.5h0.5v1.5h0.8v0.4h-0.8v1.6c0,0.4,0.1,0.5,0.3,0.5c0.1,0,0.3-0.1,0.4-0.2
	l0.3,0.3c-0.2,0.2-0.4,0.3-0.7,0.3C141.4,156.2,141,155.9,141,155.3z"/>
<path class="st6" d="M143,154.7c0-0.8,0.7-1.5,1.5-1.6c0.8,0,1.5,0.7,1.6,1.5c0,0.8-0.7,1.5-1.5,1.6c0,0,0,0,0,0
	C143.7,156.2,143,155.6,143,154.7C143,154.7,143,154.7,143,154.7z M145.6,154.7c0-0.6-0.5-1-1.1-0.9c-0.6,0-1,0.5-0.9,1.1
	c0,0.5,0.5,0.9,1,0.9C145.1,155.8,145.6,155.4,145.6,154.7C145.6,154.8,145.6,154.7,145.6,154.7L145.6,154.7z"/>
<path class="st6" d="M146.9,153.2h0.5v0.6c0.2-0.4,0.6-0.7,1-0.7c0.6,0,1.1,0.4,1.1,1c0,0.1,0,0.1,0,0.2v1.8H149v-1.7
	c0-0.5-0.2-0.8-0.7-0.8c-0.5,0-0.9,0.3-0.9,0.8c0,0,0,0.1,0,0.1v1.6h-0.5L146.9,153.2z"/>
<path class="st6" d="M150.3,155.8c0-0.2,0.2-0.4,0.4-0.4c0.2,0,0.4,0.2,0.4,0.4c0,0.2-0.2,0.4-0.4,0.4
	C150.5,156.2,150.3,156,150.3,155.8z"/>
<path class="st6" d="M193.5,137.7v-3.1h0.5v3.1c0,0.7,0.5,1.2,1.2,1.2s1.2-0.5,1.2-1.2c0,0,0,0,0,0v-3.1h0.5v3.1
	c-0.1,0.9-0.9,1.6-1.8,1.6C194.2,139.2,193.5,138.6,193.5,137.7L193.5,137.7z"/>
<path class="st6" d="M197.6,138.7l0.4-0.2c0.2,0.3,0.5,0.5,0.8,0.5c0.4,0,0.6-0.2,0.6-0.4s-0.2-0.4-0.8-0.5s-0.9-0.3-0.9-0.9
	s0.4-0.8,0.9-0.8c0.4,0,0.8,0.1,1,0.5l-0.3,0.3c-0.1-0.2-0.4-0.3-0.6-0.3c-0.3,0-0.5,0.1-0.5,0.4s0.2,0.4,0.7,0.5s1,0.3,1,0.9
	s-0.3,0.9-1.1,0.9C198.4,139.5,197.9,139.2,197.6,138.7z"/>
<path class="st6" d="M202.1,139c0.3,0,0.7-0.1,0.9-0.4l0.3,0.3c-0.3,0.3-0.8,0.5-1.2,0.5c-0.8,0.1-1.6-0.5-1.7-1.3
	c-0.1-0.8,0.5-1.6,1.3-1.7c0.1,0,0.2,0,0.3,0c0.8,0,1.5,0.6,1.5,1.4c0,0.1,0,0.2,0,0.2h-2.5C201.1,138.6,201.6,139,202.1,139
	C202.1,139,202.1,139,202.1,139z M203,137.7c0-0.5-0.4-0.9-0.9-0.9c0,0-0.1,0-0.1,0c-0.5,0-0.9,0.4-1,0.9H203z"/>
<path class="st6" d="M204.4,136.5h0.5v0.6c0.2-0.5,0.7-0.7,1.2-0.6c0.1,0,0.1,0.1,0.2,0.1L206,137c-0.1-0.1-0.3-0.1-0.4-0.1
	c-0.4,0-0.8,0.3-0.8,1v1.5h-0.5L204.4,136.5z"/>
<path class="st6" d="M208.2,136.5h0.5l0.6,1.6c0.1,0.1,0.1,0.3,0.1,0.4c0-0.2,0.1-0.3,0.1-0.4l0.8-1.6h0.1l0.8,1.6
	c0.1,0.1,0.1,0.3,0.1,0.4c0-0.2,0.1-0.3,0.1-0.4l0.6-1.6h0.5l-1.2,3h-0.1l-0.8-1.7c-0.1-0.1-0.1-0.3-0.1-0.4c0,0.1-0.1,0.3-0.1,0.4
	l-0.8,1.7h-0.1L208.2,136.5z"/>
<path class="st6" d="M213.2,135.3c0-0.2,0.2-0.3,0.4-0.3s0.3,0.2,0.3,0.4s-0.2,0.3-0.3,0.3S213.2,135.5,213.2,135.3L213.2,135.3z
	 M213.3,136.5h0.5v2.9h-0.5L213.3,136.5z"/>
<path class="st6" d="M214.9,134.3h0.5v5h-0.5V134.3z"/>
<path class="st6" d="M216.5,134.3h0.5v5h-0.5V134.3z"/>
<path class="st6" d="M220.2,138.7v0.6h-0.5v-5h0.5v2.8c0.2-0.4,0.6-0.7,1.1-0.7c0.8,0.1,1.4,0.8,1.3,1.7c-0.1,0.7-0.6,1.2-1.3,1.3
	C220.8,139.4,220.4,139.2,220.2,138.7z M222.2,137.9c0-0.6-0.4-1-0.9-1.1c0,0,0,0-0.1,0c-0.6,0-1,0.4-1,1c0,0,0,0,0,0.1
	c0,0.6,0.4,1,0.9,1.1c0,0,0.1,0,0.1,0c0.6,0,1-0.4,1-1C222.2,138,222.2,137.9,222.2,137.9L222.2,137.9z"/>
<path class="st6" d="M224.9,139c0.3,0,0.7-0.1,0.9-0.4l0.3,0.3c-0.3,0.3-0.8,0.5-1.2,0.5c-0.8,0.1-1.6-0.5-1.7-1.3
	c-0.1-0.8,0.5-1.6,1.3-1.7c0.1,0,0.2,0,0.3,0c0.8,0,1.5,0.6,1.5,1.4c0,0.1,0,0.2,0,0.2h-2.5C223.9,138.6,224.4,139,224.9,139
	C224.9,139,224.9,139,224.9,139z M225.8,137.7c0-0.5-0.4-0.9-0.9-0.9c0,0-0.1,0-0.1,0c-0.5,0-0.9,0.4-1,0.9H225.8z"/>
<path class="st6" d="M228.6,137.9c0-0.8,0.6-1.5,1.3-1.5c0,0,0,0,0.1,0c0.5,0,0.9,0.2,1.1,0.7v-2.8h0.5v5h-0.5v-0.6
	c-0.2,0.4-0.6,0.7-1.1,0.7C229.2,139.4,228.6,138.7,228.6,137.9C228.6,137.9,228.6,137.9,228.6,137.9z M231.1,137.9
	c0-0.6-0.4-1-0.9-1.1c0,0,0,0-0.1,0c-0.6,0-1,0.4-1,1c0,0,0,0,0,0.1c0,0.6,0.4,1,0.9,1.1c0,0,0.1,0,0.1,0
	C230.7,139,231.2,138.5,231.1,137.9C231.2,138,231.2,137.9,231.1,137.9z"/>
<path class="st6" d="M232.6,135.3c0-0.2,0.2-0.3,0.4-0.3s0.3,0.2,0.3,0.4s-0.2,0.3-0.3,0.3S232.6,135.5,232.6,135.3L232.6,135.3z
	 M232.7,136.5h0.5v2.9h-0.5V136.5z"/>
<path class="st6" d="M234.2,136.5h0.5v0.6c0.1-0.4,0.5-0.6,0.8-0.6c0.2,0,0.4,0,0.5,0.1l-0.2,0.4c-0.1-0.1-0.3-0.1-0.4-0.1
	c-0.4,0-0.8,0.3-0.8,1v1.5h-0.5L234.2,136.5z"/>
<path class="st6" d="M238,139c0.3,0,0.7-0.1,0.9-0.4l0.3,0.3c-0.3,0.3-0.8,0.5-1.2,0.5c-0.8,0.1-1.6-0.6-1.6-1.4
	c-0.1-0.8,0.6-1.6,1.4-1.6c0.8-0.1,1.6,0.6,1.6,1.4c0,0.1,0,0.2,0,0.3h-2.5C237,138.6,237.5,139,238,139C238,139,238,139,238,139z
	 M238.9,137.7c0-0.5-0.4-0.9-0.9-0.9c0,0,0,0-0.1,0c-0.5,0-0.9,0.4-1,0.9H238.9z"/>
<path class="st6" d="M240.1,137.9c0-0.8,0.6-1.5,1.4-1.5c0,0,0,0,0.1,0c0.4,0,0.9,0.2,1.1,0.5l-0.4,0.3c-0.2-0.2-0.5-0.4-0.8-0.4
	c-0.6,0-1.1,0.5-1.1,1.1s0.5,1.1,1.1,1.1c0.3,0,0.6-0.1,0.8-0.4l0.3,0.3c-0.3,0.3-0.7,0.5-1.2,0.5
	C240.7,139.4,240.1,138.8,240.1,137.9C240.1,137.9,240.1,137.9,240.1,137.9z"/>
<path class="st6" d="M243.7,138.5v-1.6h-0.4v-0.4h0.4v-1.5h0.5v1.5h0.8v0.4h-0.8v1.6c0,0.4,0.1,0.5,0.3,0.5c0.1,0,0.3-0.1,0.4-0.2
	l0.3,0.3c-0.2,0.2-0.4,0.3-0.7,0.3C244,139.4,243.7,139.2,243.7,138.5z"/>
<path class="st6" d="M247.2,139c0.3,0,0.7-0.1,0.9-0.4l0.3,0.3c-0.3,0.3-0.8,0.5-1.2,0.5c-0.8,0-1.5-0.6-1.6-1.4c0,0,0-0.1,0-0.1
	c0-0.8,0.6-1.5,1.4-1.5c0,0,0,0,0.1,0c0.8,0,1.5,0.6,1.5,1.5c0,0.1,0,0.1,0,0.2h-2.5C246.2,138.6,246.7,139,247.2,139
	C247.2,139,247.2,139,247.2,139z M248.1,137.7c0-0.5-0.4-0.9-0.9-0.9c0,0-0.1,0-0.1,0c-0.5,0-0.9,0.4-1,0.9H248.1z"/>
<path class="st6" d="M249.3,137.9c0-0.8,0.6-1.5,1.3-1.5c0,0,0,0,0.1,0c0.5,0,0.9,0.2,1.1,0.7v-2.8h0.5v5h-0.5v-0.6
	c-0.2,0.4-0.6,0.7-1.1,0.7C249.9,139.4,249.3,138.7,249.3,137.9C249.3,137.9,249.3,137.9,249.3,137.9z M251.8,137.9
	c0-0.6-0.4-1-0.9-1.1c0,0,0,0-0.1,0c-0.6,0-1,0.4-1,1c0,0,0,0,0,0.1c0,0.6,0.4,1,0.9,1.1c0,0,0.1,0,0.1,0
	C251.4,139,251.8,138.5,251.8,137.9C251.8,137.9,251.8,137.9,251.8,137.9L251.8,137.9z"/>
<path class="st6" d="M255.1,138.5v-1.6h-0.5v-0.4h0.5v-1.5h0.5v1.5h0.8v0.4h-0.8v1.6c0,0.4,0.1,0.5,0.3,0.5c0.1,0,0.3-0.1,0.4-0.2
	l0.3,0.3c-0.2,0.2-0.4,0.3-0.7,0.3C255.5,139.4,255.1,139.2,255.1,138.5z"/>
<path class="st6" d="M257.1,137.9c0-0.8,0.7-1.5,1.5-1.5c0.8,0,1.5,0.7,1.5,1.5c0,0.8-0.7,1.5-1.5,1.5
	C257.8,139.4,257.1,138.7,257.1,137.9z M259.7,137.9c0-0.6-0.5-1-1.1-0.9c-0.6,0-1,0.5-0.9,1.1c0,0.5,0.5,0.9,1,0.9
	C259.2,139,259.7,138.5,259.7,137.9C259.7,138,259.7,137.9,259.7,137.9z"/>
<path class="st6" d="M262.3,136.5h0.5l0.6,1.6c0.1,0.1,0.1,0.3,0.1,0.4c0-0.2,0.1-0.3,0.1-0.4l0.8-1.6h0.1l0.8,1.6
	c0.1,0.1,0.1,0.3,0.1,0.4c0-0.2,0.1-0.3,0.1-0.4l0.6-1.6h0.5l-1.2,3h-0.1l-0.8-1.7c-0.1-0.1-0.1-0.3-0.1-0.4c0,0.1-0.1,0.3-0.1,0.4
	l-0.8,1.7h-0.1L262.3,136.5z"/>
<path class="st6" d="M267.5,136.5h0.5v0.6c0.1-0.4,0.5-0.6,0.9-0.6c0.2,0,0.4,0,0.5,0.1l-0.2,0.4c-0.1-0.1-0.3-0.1-0.4-0.1
	c-0.4,0-0.7,0.3-0.7,1v1.5h-0.5L267.5,136.5z"/>
<path class="st6" d="M269.9,135.3c0-0.2,0.2-0.3,0.4-0.3s0.4,0.2,0.4,0.4c0,0.2-0.2,0.3-0.4,0.3S269.9,135.5,269.9,135.3
	L269.9,135.3z M270,136.5h0.5v2.9H270V136.5z"/>
<path class="st6" d="M271.7,138.5v-1.6h-0.5v-0.4h0.5v-1.5h0.5v1.5h0.8v0.4h-0.8v1.6c0,0.4,0.1,0.5,0.4,0.5c0.1,0,0.3-0.1,0.4-0.2
	l0.3,0.3c-0.2,0.2-0.4,0.3-0.7,0.3C272,139.4,271.7,139.2,271.7,138.5z"/>
<path class="st6" d="M275.2,139c0.3,0,0.7-0.1,0.9-0.4l0.3,0.3c-0.3,0.3-0.8,0.5-1.2,0.5c-0.8,0.1-1.6-0.6-1.6-1.4
	c-0.1-0.8,0.6-1.6,1.4-1.6s1.6,0.6,1.6,1.4c0,0.1,0,0.2,0,0.3h-2.5C274.2,138.6,274.6,139,275.2,139C275.2,139,275.2,139,275.2,139z
	 M276.1,137.7c0-0.5-0.4-0.9-0.9-0.9c0,0,0,0-0.1,0c-0.5,0-0.9,0.4-1,0.9H276.1z"/>
<path class="st6" d="M200.9,144.8h0.5v0.6c0.2-0.5,0.7-0.7,1.2-0.6c0.1,0,0.1,0.1,0.2,0.1l-0.2,0.4c-0.1-0.1-0.3-0.1-0.4-0.1
	c-0.4,0-0.8,0.3-0.8,1v1.5h-0.5L200.9,144.8z"/>
<path class="st6" d="M204.7,147.4c0.3,0,0.7-0.1,0.9-0.4l0.3,0.3c-0.3,0.3-0.8,0.5-1.2,0.5c-0.8,0.1-1.6-0.6-1.6-1.4
	c-0.1-0.8,0.6-1.6,1.4-1.6c0.8-0.1,1.6,0.6,1.6,1.4c0,0.1,0,0.2,0,0.3h-2.5C203.7,147,204.2,147.4,204.7,147.4
	C204.7,147.4,204.7,147.4,204.7,147.4z M205.6,146.1c0-0.5-0.4-0.9-0.9-0.9c0,0,0,0-0.1,0c-0.5,0-0.9,0.4-1,0.9H205.6z"/>
<path class="st6" d="M206.5,144.8h0.5l0.8,1.7c0.1,0.2,0.1,0.3,0.2,0.5c0-0.2,0.1-0.3,0.1-0.5l0.8-1.7h0.5l-1.4,2.9h-0.1
	L206.5,144.8z"/>
<path class="st6" d="M210,143.7c0-0.2,0.2-0.4,0.3-0.4s0.4,0.2,0.4,0.3c0,0,0,0,0,0c0,0.2-0.2,0.3-0.4,0.3
	C210.1,144,210,143.9,210,143.7z M210.1,144.8h0.5v2.9h-0.5V144.8z"/>
<path class="st6" d="M213,147.4c0.3,0,0.7-0.1,0.9-0.4l0.3,0.3c-0.3,0.3-0.8,0.5-1.2,0.5c-0.8,0.1-1.6-0.6-1.6-1.4s0.6-1.6,1.4-1.6
	c0.8-0.1,1.6,0.6,1.6,1.4c0,0.1,0,0.2,0,0.3h-2.5C212,147,212.5,147.4,213,147.4C213,147.4,213,147.4,213,147.4z M213.9,146.1
	c0-0.5-0.4-0.9-0.9-0.9c0,0-0.1,0-0.1,0c-0.5,0-0.9,0.4-1,0.9H213.9z"/>
<path class="st6" d="M214.9,144.8h0.5l0.6,1.6c0.1,0.2,0.1,0.4,0.1,0.4c0-0.2,0.1-0.3,0.1-0.4l0.8-1.6h0.1l0.8,1.6
	c0.1,0.1,0.1,0.3,0.2,0.4c0-0.2,0.1-0.3,0.1-0.4l0.6-1.6h0.5l-1.2,3H218l-0.8-1.7c-0.1-0.1-0.1-0.3-0.1-0.4c0,0.1-0.1,0.3-0.1,0.4
	l-0.8,1.7H216L214.9,144.8z"/>
<path class="st6" d="M219.6,147.7c-0.1,0-0.3-0.2-0.2-0.3c0-0.2,0.2-0.4,0.4-0.4c0.2,0,0.4,0.2,0.4,0.4c0,0,0,0,0,0
	c0,0.1,0,0.2-0.1,0.3l-0.4,0.8h-0.3L219.6,147.7z"/>
<path class="st6" d="M224.4,146c0-0.6-0.2-0.8-0.7-0.8c-0.3,0-0.6,0.1-0.8,0.4l-0.3-0.3c0.3-0.4,0.7-0.6,1.2-0.6
	c0.6,0,1.1,0.4,1.1,1c0,0.1,0,0.1,0,0.2v1.8h-0.5v-0.4c-0.2,0.3-0.6,0.5-1,0.5c-0.6,0-1.1-0.3-1.1-0.9s0.5-0.9,1.1-0.9L224.4,146
	L224.4,146z M223.5,146.4c-0.4,0-0.6,0.1-0.6,0.5s0.2,0.5,0.7,0.5s0.8-0.2,0.8-0.6v-0.4H223.5z"/>
<path class="st6" d="M225.6,147.1l0.4-0.2c0.2,0.3,0.5,0.5,0.8,0.5c0.4,0,0.6-0.2,0.6-0.4s-0.2-0.4-0.8-0.5s-0.9-0.3-0.9-0.9
	s0.4-0.8,0.9-0.8c0.4,0,0.8,0.1,1,0.5l-0.3,0.3c-0.1-0.2-0.4-0.3-0.6-0.3c-0.3,0-0.5,0.1-0.5,0.4s0.2,0.4,0.7,0.5s1,0.3,1,0.9
	s-0.3,0.9-1.1,0.9C226.4,147.9,225.9,147.6,225.6,147.1z"/>
<path class="st6" d="M230.1,144.8h0.5l0.6,1.6c0.1,0.1,0.1,0.3,0.1,0.4c0-0.2,0.1-0.3,0.1-0.4l0.8-1.6h0.1l0.8,1.6
	c0.1,0.1,0.1,0.3,0.1,0.4c0-0.2,0.1-0.3,0.1-0.4l0.6-1.6h0.5l-1.2,3h-0.1l-0.8-1.7c-0.1-0.1-0.1-0.3-0.1-0.4c0,0.1-0.1,0.3-0.1,0.4
	l-0.8,1.7h-0.1L230.1,144.8z"/>
<path class="st6" d="M236.5,147.4c0.3,0,0.7-0.1,0.9-0.4l0.3,0.3c-0.3,0.3-0.8,0.5-1.2,0.5c-0.8,0.1-1.6-0.5-1.7-1.3
	c-0.1-0.8,0.5-1.6,1.3-1.7c0.1,0,0.2,0,0.3,0c0.8,0,1.5,0.6,1.5,1.4c0,0.1,0,0.2,0,0.2h-2.5C235.5,147,235.9,147.4,236.5,147.4
	C236.5,147.4,236.5,147.4,236.5,147.4z M237.4,146.1c0-0.5-0.4-0.9-0.9-0.9c0,0-0.1,0-0.1,0c-0.5,0-0.9,0.4-1,0.9H237.4z"/>
<path class="st6" d="M238.8,142.7h0.5v5h-0.5V142.7z"/>
<path class="st6" d="M240.3,142.7h0.5v5h-0.5V142.7z"/>
<path class="st6" d="M245.4,146c0-0.6-0.2-0.8-0.7-0.8c-0.3,0-0.6,0.1-0.8,0.4l-0.3-0.3c0.3-0.4,0.7-0.6,1.2-0.6
	c0.6,0,1.1,0.4,1.1,1c0,0.1,0,0.1,0,0.2v1.8h-0.5v-0.4c-0.2,0.4-0.6,0.5-1,0.5c-0.6,0-1.1-0.3-1.1-0.9s0.5-0.9,1.1-0.9L245.4,146
	L245.4,146z M244.5,146.4c-0.4,0-0.7,0.1-0.7,0.5s0.2,0.5,0.7,0.5s0.8-0.2,0.8-0.6v-0.4H244.5z"/>
<path class="st6" d="M246.6,147.1l0.4-0.2c0.2,0.3,0.5,0.5,0.8,0.5c0.4,0,0.6-0.2,0.6-0.4s-0.2-0.4-0.8-0.5s-0.9-0.3-0.9-0.9
	s0.4-0.8,1-0.8c0.4,0,0.8,0.1,1,0.5l-0.3,0.3c-0.1-0.2-0.4-0.3-0.6-0.3c-0.3,0-0.5,0.1-0.5,0.4s0.2,0.4,0.7,0.5c0.5,0.1,1,0.3,1,0.9
	s-0.3,0.9-1.1,0.9C247.4,147.9,246.9,147.6,246.6,147.1z"/>
<path class="st6" d="M251.4,142.7h0.5v2.7c0.2-0.4,0.6-0.6,1-0.6c0.6,0,1.1,0.4,1.1,1c0,0.1,0,0.1,0,0.2v1.7h-0.5V146
	c0-0.5-0.2-0.8-0.7-0.8c-0.5,0-0.9,0.3-0.9,0.8c0,0,0,0.1,0,0.1v1.6h-0.5L251.4,142.7z"/>
<path class="st6" d="M256.8,146c0-0.6-0.3-0.8-0.7-0.8c-0.3,0-0.7,0.1-0.9,0.4l-0.3-0.3c0.3-0.4,0.7-0.6,1.2-0.6
	c0.6,0,1.1,0.4,1.1,1c0,0.1,0,0.1,0,0.2v1.8h-0.5v-0.4c-0.2,0.3-0.6,0.5-1,0.5c-0.6,0-1.1-0.3-1.1-0.9s0.5-0.9,1.1-0.9L256.8,146
	L256.8,146z M255.9,146.4c-0.4,0-0.7,0.1-0.7,0.5s0.2,0.5,0.7,0.5c0.5,0,0.8-0.2,0.8-0.6v-0.4H255.9z"/>
<path class="st6" d="M257.9,144.8h0.5l0.8,1.7c0.1,0.2,0.1,0.3,0.2,0.5c0-0.2,0.1-0.3,0.1-0.5l0.8-1.7h0.5l-1.4,2.9h-0.1
	L257.9,144.8z"/>
<path class="st6" d="M261.4,143.7c0-0.2,0.2-0.4,0.4-0.4s0.4,0.2,0.4,0.4s-0.2,0.4-0.4,0.4S261.4,143.9,261.4,143.7z M261.5,144.8
	h0.5v2.9h-0.5V144.8z"/>
<path class="st6" d="M263,144.8h0.5v0.6c0.2-0.4,0.6-0.7,1-0.7c0.6,0,1.1,0.4,1.1,1c0,0.1,0,0.1,0,0.2v1.8h-0.5V146
	c0-0.5-0.2-0.8-0.7-0.8c-0.5,0-0.9,0.3-0.9,0.8c0,0,0,0.1,0,0.1v1.6H263L263,144.8z"/>
<path class="st6" d="M269.1,144.8v0.4h-0.6c0.1,0.2,0.2,0.4,0.2,0.6c0,0.6-0.4,1-1,1c0,0-0.1,0-0.1,0c-0.2,0-0.4,0-0.6-0.1
	c-0.1,0-0.2,0.1-0.2,0.3c0,0.2,0.1,0.3,0.4,0.3h0.7c0.8,0.1,1.2,0.4,1.2,0.9s-0.6,1-1.5,1s-1.5-0.4-1.5-1c0-0.4,0.3-0.6,0.7-0.8
	c-0.2-0.1-0.4-0.3-0.4-0.5c0-0.2,0.2-0.5,0.4-0.5c-0.2-0.2-0.3-0.4-0.3-0.7c0-0.6,0.5-1,1.1-1c0,0,0,0,0.1,0c0.1,0,0.3,0,0.4,0.1
	L269.1,144.8z M266.7,148.3c0,0.4,0.3,0.6,1,0.6s1-0.2,1-0.6s-0.2-0.5-0.8-0.5h-0.7C266.9,147.8,266.7,148,266.7,148.3z
	 M268.4,145.8c0-0.4-0.4-0.7-0.8-0.6c-0.3,0-0.6,0.3-0.6,0.6c0,0.4,0.4,0.7,0.8,0.6C268.1,146.4,268.3,146.1,268.4,145.8z"/>
<path class="st6" d="M205.7,154.7c0-0.8,0.7-1.5,1.5-1.6c0.8,0,1.5,0.7,1.6,1.5c0,0.8-0.7,1.5-1.5,1.6c0,0,0,0,0,0
	C206.4,156.2,205.7,155.6,205.7,154.7C205.7,154.7,205.7,154.7,205.7,154.7z M208.2,154.7c0-0.6-0.5-1-1.1-0.9c-0.6,0-1,0.5-0.9,1.1
	c0,0.5,0.5,0.9,1,0.9C207.8,155.8,208.2,155.4,208.2,154.7C208.2,154.8,208.2,154.7,208.2,154.7z"/>
<path class="st6" d="M209.6,153.2h0.5v0.6c0.2-0.4,0.6-0.7,1.1-0.7c0.8,0.1,1.4,0.8,1.3,1.7c-0.1,0.7-0.6,1.2-1.3,1.3
	c-0.5,0-0.9-0.2-1.1-0.7v2.1h-0.5L209.6,153.2z M212.1,154.7c0-0.6-0.4-1-0.9-1.1c0,0,0,0-0.1,0c-0.6,0.1-1,0.6-1,1.2
	c0,0.5,0.5,0.9,1,1C211.6,155.8,212.1,155.3,212.1,154.7C212.1,154.7,212.1,154.7,212.1,154.7L212.1,154.7z"/>
<path class="st6" d="M213.6,155.3v-1.6h-0.4v-0.4h0.4v-1.5h0.5v1.5h0.8v0.4H214v1.6c0,0.4,0.1,0.5,0.3,0.5c0.2,0,0.3-0.1,0.4-0.2
	l0.3,0.3c-0.2,0.2-0.4,0.3-0.7,0.3C213.9,156.2,213.6,155.9,213.6,155.3z"/>
<path class="st6" d="M215.7,152.1c0-0.2,0.2-0.4,0.3-0.4s0.4,0.2,0.4,0.3c0,0,0,0,0,0c0,0.2-0.2,0.3-0.4,0.3
	C215.8,152.4,215.7,152.2,215.7,152.1z M215.8,153.2h0.5v2.9h-0.5L215.8,153.2z"/>
<path class="st6" d="M217.1,154.7c0-0.8,0.7-1.5,1.5-1.6c0.8,0,1.5,0.7,1.6,1.5c0,0.8-0.7,1.5-1.5,1.6c0,0,0,0,0,0
	C217.8,156.2,217.1,155.6,217.1,154.7C217.1,154.7,217.1,154.7,217.1,154.7z M219.7,154.7c0-0.6-0.5-1-1.1-0.9c-0.6,0-1,0.5-0.9,1.1
	c0,0.5,0.5,0.9,1,0.9C219.2,155.8,219.7,155.4,219.7,154.7C219.7,154.8,219.7,154.7,219.7,154.7L219.7,154.7z"/>
<path class="st6" d="M221,153.2h0.5v0.6c0.2-0.4,0.6-0.7,1-0.7c0.6,0,1.1,0.4,1.1,1c0,0.1,0,0.1,0,0.2v1.8h-0.5v-1.7
	c0-0.5-0.2-0.8-0.7-0.8c-0.5,0-0.9,0.3-0.9,0.8c0,0,0,0.1,0,0.1v1.6H221L221,153.2z"/>
<path class="st6" d="M226.5,155.3v-1.6H226v-0.4h0.4v-1.5h0.5v1.5h0.8v0.4H227v1.6c0,0.4,0.1,0.5,0.3,0.5c0.1,0,0.3-0.1,0.4-0.2
	l0.3,0.3c-0.2,0.2-0.4,0.3-0.7,0.3C226.8,156.2,226.5,155.9,226.5,155.3z"/>
<path class="st6" d="M228.4,154.7c0-0.8,0.7-1.5,1.5-1.6c0.8,0,1.5,0.7,1.6,1.5c0,0.8-0.7,1.5-1.5,1.6c0,0,0,0,0,0
	C229.1,156.2,228.5,155.6,228.4,154.7C228.4,154.7,228.4,154.7,228.4,154.7z M231,154.7c0-0.6-0.5-1-1.1-0.9c-0.6,0-1,0.5-0.9,1.1
	c0,0.5,0.5,0.9,1,0.9C230.6,155.8,231,155.4,231,154.7C231,154.8,231,154.7,231,154.7z"/>
<path class="st6" d="M235.8,154.4c0-0.6-0.2-0.8-0.7-0.8c-0.3,0-0.6,0.1-0.8,0.4l-0.3-0.3c0.3-0.4,0.7-0.6,1.2-0.6
	c0.6,0,1.1,0.4,1.1,1c0,0.1,0,0.1,0,0.2v1.8h-0.5v-0.4c-0.2,0.3-0.6,0.5-1,0.5c-0.6,0-1.1-0.3-1.1-0.9s0.5-0.9,1.1-0.9L235.8,154.4
	L235.8,154.4z M234.9,154.8c-0.4,0-0.6,0.1-0.6,0.5s0.2,0.5,0.7,0.5s0.8-0.2,0.8-0.6v-0.4H234.9z"/>
<path class="st6" d="M237.1,154.7c0-0.8,0.6-1.5,1.3-1.5c0,0,0,0,0.1,0c0.5,0,0.9,0.2,1.1,0.7v-2.8h0.5v5h-0.5v-0.6
	c-0.2,0.4-0.6,0.7-1.1,0.7C237.7,156.2,237.1,155.5,237.1,154.7z M239.6,154.7c0-0.6-0.4-1-0.9-1.1c0,0,0,0-0.1,0
	c-0.6,0.1-1,0.6-1,1.2c0,0.5,0.5,0.9,1,1C239.2,155.8,239.7,155.4,239.6,154.7C239.7,154.8,239.7,154.7,239.6,154.7z"/>
<path class="st6" d="M241,154.7c0-0.8,0.6-1.5,1.3-1.5c0,0,0,0,0.1,0c0.5,0,0.9,0.2,1.1,0.7v-2.8h0.5v5h-0.5v-0.6
	c-0.2,0.4-0.6,0.7-1.1,0.7C241.6,156.2,241,155.5,241,154.7z M243.5,154.7c0-0.6-0.4-1-0.9-1.1c0,0,0,0-0.1,0c-0.6,0.1-1,0.6-1,1.2
	c0,0.5,0.5,0.9,1,1C243.1,155.8,243.5,155.4,243.5,154.7C243.5,154.8,243.5,154.7,243.5,154.7L243.5,154.7z"/>
<path class="st6" d="M246.6,152.1c0-0.2,0.2-0.4,0.3-0.4h0c0.2,0,0.4,0.2,0.4,0.3v0c0,0.2-0.2,0.3-0.4,0.3
	C246.7,152.4,246.6,152.2,246.6,152.1C246.6,152.1,246.6,152.1,246.6,152.1z M246.7,153.2h0.5v2.9h-0.5V153.2z"/>
<path class="st6" d="M248.2,153.2h0.5v0.6c0.2-0.4,0.5-0.6,0.9-0.6c0.4,0,0.8,0.2,0.9,0.6c0.2-0.4,0.6-0.6,1-0.6c0.6,0,1,0.4,1,1
	c0,0,0,0.1,0,0.1v1.9H252v-1.8c0-0.5-0.2-0.7-0.6-0.7s-0.8,0.3-0.8,0.9v1.6h-0.5v-1.8c0-0.5-0.2-0.7-0.6-0.7c-0.4,0-0.8,0.3-0.8,0.8
	c0,0,0,0.1,0,0.1v1.6h-0.5V153.2z"/>
<path class="st6" d="M255.3,154.4c0-0.6-0.2-0.8-0.7-0.8c-0.3,0-0.7,0.1-0.9,0.4l-0.3-0.3c0.3-0.4,0.7-0.6,1.2-0.6
	c0.6,0,1.1,0.4,1.1,1c0,0.1,0,0.1,0,0.2v1.8h-0.5v-0.4c-0.2,0.3-0.6,0.5-1,0.5c-0.6,0-1.1-0.3-1.1-0.9s0.5-0.9,1.1-0.9L255.3,154.4
	L255.3,154.4z M254.4,154.8c-0.4,0-0.7,0.1-0.7,0.5s0.2,0.5,0.7,0.5s0.8-0.2,0.8-0.6v-0.4H254.4z"/>
<path class="st6" d="M259.4,153.2v0.4h-0.6c0.2,0.2,0.2,0.4,0.2,0.6c0,0.6-0.4,1-1,1c0,0-0.1,0-0.1,0c-0.2,0-0.4,0-0.6-0.1
	c-0.1,0-0.2,0.1-0.2,0.3c0,0.2,0.1,0.3,0.4,0.3l0.7,0.1c0.8,0.1,1.2,0.4,1.2,0.9s-0.6,1-1.5,1s-1.5-0.4-1.5-1c0-0.4,0.3-0.6,0.7-0.8
	c-0.2-0.1-0.4-0.3-0.4-0.5c0-0.2,0.2-0.5,0.4-0.5c-0.2-0.2-0.3-0.4-0.3-0.7c0-0.6,0.4-1,1-1c0.1,0,0.1,0,0.2,0c0.1,0,0.3,0,0.4,0.1
	L259.4,153.2z M256.9,156.7c0,0.4,0.3,0.6,1,0.6s1-0.2,1-0.6s-0.2-0.5-0.8-0.5h-0.7C257.1,156.2,256.9,156.4,256.9,156.7z
	 M258.6,154.2c0-0.4-0.3-0.7-0.6-0.7c-0.4,0-0.7,0.3-0.7,0.6c0,0.4,0.3,0.7,0.6,0.7c0,0,0,0,0,0c0.3,0,0.7-0.2,0.7-0.5
	C258.6,154.3,258.6,154.2,258.6,154.2L258.6,154.2z"/>
<path class="st6" d="M261.4,155.8c0.3,0,0.7-0.1,0.9-0.4l0.3,0.3c-0.3,0.3-0.8,0.5-1.2,0.5c-0.8,0.1-1.6-0.5-1.7-1.3
	s0.5-1.6,1.3-1.7c0.1,0,0.2,0,0.3,0c0.8,0,1.5,0.6,1.5,1.4c0,0.1,0,0.2,0,0.2h-2.5C260.3,155.4,260.8,155.8,261.4,155.8
	C261.4,155.8,261.4,155.8,261.4,155.8z M262.3,154.5c0-0.5-0.4-0.9-0.9-0.9c0,0-0.1,0-0.1,0c-0.5,0-0.9,0.4-1,0.9H262.3z"/>
<path class="st6" d="M263.3,155.8c0-0.2,0.2-0.4,0.4-0.4c0.2,0,0.4,0.2,0.4,0.4c0,0.2-0.2,0.4-0.4,0.4S263.3,156,263.3,155.8
	C263.3,155.8,263.3,155.8,263.3,155.8z"/>
<path class="st6" d="M300.8,139.8v-3.1h0.5v3.1c0,0.7,0.5,1.2,1.2,1.2c0.7,0,1.2-0.5,1.2-1.2c0,0,0,0,0,0v-3.1h0.5v3.1
	c-0.1,0.9-0.9,1.6-1.8,1.6C301.5,141.3,300.9,140.6,300.8,139.8L300.8,139.8z"/>
<path class="st6" d="M304.9,140.8l0.4-0.2c0.2,0.3,0.5,0.5,0.8,0.5c0.4,0,0.6-0.2,0.6-0.4s-0.2-0.4-0.8-0.5s-0.9-0.3-0.9-0.9
	s0.4-0.8,1-0.8c0.4,0,0.8,0.2,1,0.5l-0.3,0.3c-0.1-0.2-0.4-0.3-0.6-0.3c-0.3,0-0.5,0.1-0.5,0.4s0.2,0.4,0.7,0.5s1,0.3,1,0.9
	s-0.3,0.9-1,0.9C305.7,141.5,305.2,141.3,304.9,140.8z"/>
<path class="st6" d="M309.5,141.1c0.3,0,0.7-0.1,0.9-0.4l0.3,0.3c-0.3,0.3-0.8,0.5-1.2,0.5c-0.8,0.1-1.6-0.6-1.6-1.4
	c-0.1-0.8,0.6-1.6,1.4-1.6s1.6,0.6,1.6,1.4c0,0.1,0,0.2,0,0.3h-2.5C308.4,140.7,308.9,141.1,309.5,141.1
	C309.4,141.1,309.4,141.1,309.5,141.1z M310.4,139.8c0-0.5-0.4-0.9-0.9-0.9c0,0-0.1,0-0.1,0c-0.5,0-0.9,0.4-1,0.9H310.4z"/>
<path class="st6" d="M311.7,138.5h0.5v0.6c0.1-0.4,0.5-0.6,0.9-0.6c0.2,0,0.4,0,0.5,0.1l-0.2,0.4c-0.1-0.1-0.3-0.1-0.4-0.1
	c-0.4,0-0.8,0.3-0.8,1v1.5h-0.5L311.7,138.5z"/>
<path class="st6" d="M315.8,136.4h0.5v2.7c0.2-0.4,0.6-0.6,1-0.6c0.6,0,1.1,0.4,1.1,1c0,0.1,0,0.1,0,0.2v1.8h-0.5v-1.7
	c0-0.5-0.2-0.8-0.7-0.8c-0.5,0-0.9,0.3-0.9,0.8c0,0,0,0.1,0,0.1v1.6h-0.5V136.4z"/>
<path class="st6" d="M321.2,139.6c0-0.6-0.2-0.8-0.7-0.8c-0.3,0-0.7,0.1-0.9,0.4l-0.3-0.3c0.3-0.4,0.7-0.6,1.2-0.6
	c0.6,0,1.1,0.4,1.1,1c0,0.1,0,0.1,0,0.2v1.8h-0.5V141c-0.2,0.3-0.6,0.5-1,0.5c-0.6,0-1.1-0.3-1.1-0.9s0.5-0.9,1.1-0.9L321.2,139.6
	L321.2,139.6z M320.4,140.1c-0.4,0-0.7,0.1-0.7,0.5s0.2,0.5,0.7,0.5s0.8-0.2,0.8-0.6v-0.4H320.4z"/>
<path class="st6" d="M322.5,140.8l0.4-0.2c0.2,0.3,0.5,0.5,0.8,0.5c0.4,0,0.6-0.2,0.6-0.4s-0.2-0.4-0.8-0.5s-0.9-0.3-0.9-0.9
	s0.4-0.8,1-0.8c0.4,0,0.8,0.1,1,0.5l-0.3,0.3c-0.1-0.2-0.4-0.3-0.6-0.3c-0.3,0-0.5,0.1-0.5,0.4s0.2,0.4,0.7,0.5s1,0.3,1,0.9
	s-0.3,0.9-1.1,0.9C323.2,141.5,322.7,141.3,322.5,140.8z"/>
<path class="st6" d="M327.1,140c0-0.8,0.7-1.5,1.5-1.6c0.8,0,1.5,0.7,1.6,1.5s-0.7,1.5-1.5,1.6c0,0,0,0,0,0
	C327.8,141.5,327.1,140.8,327.1,140C327.1,140,327.1,140,327.1,140z M329.6,140c0-0.6-0.5-1-1.1-0.9c-0.6,0-1,0.5-0.9,1.1
	c0,0.5,0.5,0.9,1,0.9C329.2,141,329.6,140.6,329.6,140C329.6,140,329.6,140,329.6,140z"/>
<path class="st6" d="M331,138.5h0.5v0.6c0.2-0.4,0.7-0.7,1.1-0.7c0.8,0.1,1.4,0.8,1.3,1.7c-0.1,0.7-0.6,1.2-1.3,1.3
	c-0.5,0-0.9-0.2-1.1-0.7v2.1H331L331,138.5z M333.5,140c0-0.6-0.4-1-0.9-1.1c0,0,0,0-0.1,0c-0.6,0-1,0.4-1,1c0,0,0,0,0,0.1
	c0,0.6,0.4,1,0.9,1.1c0,0,0.1,0,0.1,0C333,141,333.5,140.6,333.5,140C333.5,140,333.5,140,333.5,140z"/>
<path class="st6" d="M335,140.5v-1.6h-0.4v-0.4h0.4V137h0.5v1.5h0.8v0.4h-0.8v1.6c0,0.4,0.1,0.5,0.4,0.5c0.1,0,0.3-0.1,0.4-0.2
	l0.3,0.3c-0.2,0.2-0.4,0.3-0.7,0.3C335.3,141.5,335,141.2,335,140.5z"/>
<path class="st6" d="M337.1,137.3c0-0.2,0.2-0.4,0.4-0.4s0.4,0.2,0.4,0.4s-0.2,0.4-0.4,0.4S337.1,137.5,337.1,137.3z M337.2,138.5
	h0.5v2.9h-0.5V138.5z"/>
<path class="st6" d="M338.5,140c0-0.9,0.6-1.6,1.5-1.6s1.6,0.6,1.6,1.5s-0.6,1.6-1.5,1.6c0,0,0,0,0,0
	C339.2,141.5,338.5,140.8,338.5,140C338.5,140,338.5,140,338.5,140z M341.1,140c0-0.6-0.5-1-1.1-0.9c-0.6,0-1,0.5-0.9,1.1
	c0,0.5,0.5,0.9,1,0.9C340.6,141,341.1,140.6,341.1,140C341.1,140,341.1,140,341.1,140L341.1,140z"/>
<path class="st6" d="M342.4,138.5h0.5v0.6c0.2-0.4,0.6-0.7,1-0.7c0.6,0,1.1,0.4,1.1,1c0,0.1,0,0.1,0,0.2v1.8h-0.5v-1.7
	c0-0.5-0.2-0.8-0.7-0.8c-0.5,0-0.9,0.3-0.9,0.8c0,0,0,0.1,0,0.1v1.6h-0.5L342.4,138.5z"/>
<path class="st6" d="M347.9,140.5v-1.6h-0.5v-0.4h0.5V137h0.5v1.5h0.8v0.4h-0.8v1.6c0,0.4,0.1,0.5,0.4,0.5c0.1,0,0.3-0.1,0.4-0.2
	l0.3,0.3c-0.2,0.2-0.4,0.3-0.7,0.3C348.2,141.5,347.9,141.2,347.9,140.5z"/>
<path class="st6" d="M349.8,140c0-0.8,0.7-1.5,1.5-1.6c0.8,0,1.5,0.7,1.6,1.5s-0.7,1.5-1.5,1.6c0,0,0,0,0,0
	C350.5,141.5,349.9,140.8,349.8,140C349.8,140,349.8,140,349.8,140z M352.4,140c0-0.6-0.5-1-1.1-0.9c-0.6,0-1,0.5-0.9,1.1
	c0,0.5,0.5,0.9,1,0.9C352,141,352.4,140.6,352.4,140C352.4,140,352.4,140,352.4,140z"/>
<path class="st6" d="M355.6,140.5v-1.6h-0.5v-0.4h0.5V137h0.5v1.5h0.8v0.4h-0.8v1.6c0,0.4,0.1,0.5,0.3,0.5c0.1,0,0.3-0.1,0.4-0.2
	l0.3,0.3c-0.2,0.2-0.4,0.3-0.7,0.3C355.9,141.5,355.6,141.2,355.6,140.5z"/>
<path class="st6" d="M359.6,139.6c0-0.6-0.2-0.8-0.7-0.8c-0.3,0-0.7,0.1-0.9,0.4l-0.3-0.3c0.3-0.4,0.7-0.6,1.2-0.6
	c0.6,0,1.1,0.4,1.1,1c0,0.1,0,0.1,0,0.2v1.8h-0.5V141c-0.2,0.3-0.6,0.5-1,0.5c-0.6,0-1.1-0.3-1.1-0.9s0.5-0.9,1.1-0.9L359.6,139.6
	L359.6,139.6z M358.7,140.1c-0.4,0-0.7,0.1-0.7,0.5s0.2,0.5,0.7,0.5s0.8-0.2,0.8-0.6v-0.4H358.7z"/>
<path class="st6" d="M361.6,141.4h-0.5v-5h0.5v3.2c0,0.1,0,0.3,0,0.4l1.4-1.5h0.6l-1.1,1.2l1.3,1.7h-0.6l-1-1.4l-0.5,0.5
	L361.6,141.4z"/>
<path class="st6" d="M365.6,141.1c0.3,0,0.7-0.1,0.9-0.4l0.3,0.3c-0.3,0.3-0.8,0.5-1.2,0.5c-0.8,0.1-1.6-0.5-1.7-1.3
	s0.5-1.6,1.3-1.7c0.1,0,0.2,0,0.3,0c0.8,0,1.5,0.6,1.5,1.5c0,0.1,0,0.1,0,0.2h-2.5C364.5,140.7,365,141.1,365.6,141.1
	C365.6,141.1,365.6,141.1,365.6,141.1z M366.5,139.8c0-0.5-0.4-0.9-0.9-0.9c0,0-0.1,0-0.1,0c-0.5,0-0.9,0.4-1,0.9H366.5z"/>
<path class="st6" d="M301.2,146.9h0.5v0.6c0.2-0.4,0.7-0.7,1.1-0.7c0.8,0.1,1.4,0.8,1.3,1.7c-0.1,0.7-0.6,1.2-1.3,1.3
	c-0.5,0-0.9-0.2-1.1-0.7v2.1h-0.5L301.2,146.9z M303.7,148.3c0-0.6-0.4-1-0.9-1.1c0,0,0,0-0.1,0c-0.6,0.1-1,0.6-1,1.2
	c0,0.5,0.5,0.9,1,1C303.3,149.4,303.7,149,303.7,148.3C303.7,148.4,303.7,148.4,303.7,148.3z"/>
<path class="st6" d="M305,145.7c0-0.2,0.2-0.4,0.4-0.4s0.4,0.2,0.4,0.4l0,0c0,0.2-0.2,0.4-0.4,0.4S305,145.9,305,145.7z
	 M305.1,146.9h0.5v2.9h-0.5V146.9z"/>
<path class="st6" d="M306.5,148.4c0-0.8,0.6-1.5,1.4-1.5c0,0,0,0,0.1,0c0.4,0,0.9,0.2,1.1,0.5l-0.4,0.3c-0.2-0.2-0.5-0.4-0.8-0.4
	c-0.6,0.1-1,0.6-1,1.2c0,0.5,0.5,0.9,1,1c0.3,0,0.6-0.1,0.8-0.4l0.3,0.3c-0.3,0.4-0.7,0.5-1.2,0.5
	C307.1,149.9,306.5,149.2,306.5,148.4C306.5,148.4,306.5,148.4,306.5,148.4z"/>
<path class="st6" d="M310.1,148.9v-1.6h-0.5v-0.4h0.5v-1.5h0.5v1.5h0.8v0.4h-0.8v1.6c0,0.4,0.1,0.5,0.3,0.5c0.1,0,0.3-0.1,0.4-0.2
	l0.3,0.3c-0.2,0.2-0.4,0.3-0.7,0.3C310.4,149.9,310.1,149.6,310.1,148.9z"/>
<path class="st6" d="M312.3,148.7v-1.8h0.5v1.7c0,0.5,0.2,0.8,0.7,0.8c0.5,0,0.9-0.3,0.9-0.8c0,0,0-0.1,0-0.1v-1.6h0.5v2.9h-0.5
	v-0.6c-0.2,0.4-0.6,0.6-1,0.6c-0.6,0.1-1.1-0.4-1.2-1C312.3,148.9,312.3,148.8,312.3,148.7z"/>
<path class="st6" d="M315.9,146.9h0.5v0.6c0.1-0.4,0.5-0.6,0.8-0.6c0.2,0,0.4,0,0.5,0.1l-0.2,0.4c-0.1-0.1-0.3-0.1-0.4-0.1
	c-0.4,0-0.8,0.3-0.8,1v1.5h-0.5L315.9,146.9z"/>
<path class="st6" d="M319.7,149.4c0.3,0,0.7-0.1,0.9-0.4l0.3,0.3c-0.3,0.3-0.8,0.5-1.2,0.5c-0.8,0.1-1.6-0.5-1.7-1.3
	s0.5-1.6,1.3-1.7c0.1,0,0.2,0,0.3,0c0.8,0,1.5,0.6,1.5,1.4c0,0.1,0,0.2,0,0.2h-2.5C318.7,149.1,319.1,149.5,319.7,149.4
	C319.7,149.4,319.7,149.4,319.7,149.4z M320.6,148.1c0-0.5-0.4-0.9-0.9-0.9c0,0-0.1,0-0.1,0c-0.5,0-0.9,0.4-1,0.9H320.6z"/>
<path class="st6" d="M323.4,148.4c0-0.8,0.7-1.5,1.5-1.6c0.8,0,1.5,0.7,1.6,1.5s-0.7,1.5-1.5,1.6c0,0,0,0,0,0
	C324.1,149.9,323.4,149.2,323.4,148.4C323.4,148.4,323.4,148.4,323.4,148.4z M326,148.4c0-0.6-0.5-1-1.1-0.9c-0.6,0-1,0.5-0.9,1.1
	c0,0.5,0.5,0.9,1,0.9C325.5,149.4,326,149,326,148.4C326,148.4,326,148.4,326,148.4L326,148.4z"/>
<path class="st6" d="M327.4,147.3H327v-0.4h0.5v-1.3c0-0.6,0.3-0.9,0.8-0.9c0.3,0,0.6,0.1,0.7,0.4l-0.3,0.3
	c-0.1-0.1-0.2-0.2-0.4-0.2c-0.2,0-0.4,0.1-0.4,0.5v1.3h0.8v0.4h-0.8v2.5h-0.5L327.4,147.3z"/>
<path class="st6" d="M330.9,148.4c0-0.8,0.6-1.5,1.4-1.5c0,0,0,0,0.1,0c0.4,0,0.9,0.2,1.1,0.5l-0.4,0.3c-0.2-0.2-0.5-0.4-0.8-0.4
	c-0.6,0.1-1,0.6-1,1.2c0,0.5,0.5,0.9,1,1c0.3,0,0.6-0.1,0.8-0.4l0.3,0.3c-0.3,0.4-0.7,0.5-1.2,0.5
	C331.6,149.9,331,149.2,330.9,148.4C330.9,148.4,330.9,148.4,330.9,148.4z"/>
<path class="st6" d="M334.4,144.7h0.5v2.7c0.2-0.4,0.6-0.6,1-0.6c0.6,0,1.1,0.4,1.1,1c0,0.1,0,0.1,0,0.2v1.8h-0.5v-1.7
	c0-0.5-0.2-0.8-0.7-0.8c-0.5,0-0.9,0.3-0.9,0.8c0,0,0,0.1,0,0.1v1.6h-0.5L334.4,144.7z"/>
<path class="st6" d="M337.8,148.4c0-0.9,0.6-1.6,1.5-1.6s1.6,0.6,1.6,1.5s-0.6,1.6-1.5,1.6c0,0,0,0,0,0
	C338.5,149.9,337.8,149.2,337.8,148.4C337.8,148.4,337.8,148.4,337.8,148.4z M340.4,148.4c0-0.6-0.5-1-1.1-0.9c-0.6,0-1,0.5-0.9,1.1
	c0,0.5,0.5,0.9,1,0.9c0.6,0,1-0.4,1-1C340.4,148.4,340.4,148.4,340.4,148.4L340.4,148.4z"/>
<path class="st6" d="M341.6,148.4c0-0.8,0.7-1.5,1.5-1.6c0.8,0,1.5,0.7,1.6,1.5s-0.7,1.5-1.5,1.6c0,0,0,0,0,0
	C342.3,149.9,341.6,149.2,341.6,148.4C341.6,148.4,341.6,148.4,341.6,148.4z M344.1,148.4c0-0.6-0.4-1-0.9-1.1c0,0-0.1,0-0.1,0
	c-0.6,0.1-1,0.6-1,1.2c0,0.5,0.5,0.9,1,1C343.7,149.4,344.1,149,344.1,148.4C344.1,148.4,344.1,148.4,344.1,148.4z"/>
<path class="st6" d="M345.2,149.2l0.4-0.2c0.2,0.3,0.5,0.5,0.8,0.5c0.4,0,0.6-0.2,0.6-0.4s-0.2-0.4-0.8-0.5s-0.9-0.3-0.9-0.9
	s0.4-0.8,1-0.8c0.4,0,0.8,0.1,1,0.5l-0.3,0.2c-0.1-0.2-0.4-0.3-0.6-0.3c-0.3,0-0.5,0.1-0.5,0.4s0.2,0.4,0.7,0.5s1,0.3,1,0.9
	s-0.3,0.9-1,0.9C346,149.9,345.4,149.7,345.2,149.2z"/>
<path class="st6" d="M349.7,149.4c0.3,0,0.7-0.1,0.9-0.4l0.3,0.3c-0.3,0.3-0.8,0.5-1.2,0.5c-0.8,0.1-1.6-0.5-1.7-1.3
	s0.5-1.6,1.3-1.7c0.1,0,0.2,0,0.3,0c0.8,0,1.5,0.6,1.5,1.4c0,0.1,0,0.2,0,0.2h-2.5C348.6,149.1,349.1,149.5,349.7,149.4
	C349.7,149.4,349.7,149.4,349.7,149.4z M350.6,148.1c0-0.5-0.4-0.9-0.9-0.9c0,0-0.1,0-0.1,0c-0.5,0-0.9,0.4-1,0.9H350.6z"/>
<path class="st6" d="M353.8,147.3h-0.5v-0.4h0.5v-1.3c0-0.6,0.3-0.9,0.8-0.9c0.3,0,0.6,0.1,0.7,0.4l-0.3,0.3
	c-0.1-0.1-0.2-0.2-0.4-0.2c-0.2,0-0.4,0.1-0.4,0.5v1.3h0.8v0.4h-0.8v2.5h-0.5V147.3z"/>
<path class="st6" d="M355.8,146.9h0.5v0.6c0.1-0.4,0.5-0.6,0.8-0.6c0.2,0,0.4,0,0.5,0.1l-0.2,0.4c-0.1-0.1-0.3-0.1-0.4-0.1
	c-0.4,0-0.8,0.3-0.8,1v1.5h-0.5V146.9z"/>
<path class="st6" d="M358,148.4c0-0.8,0.7-1.5,1.5-1.6c0.8,0,1.5,0.7,1.6,1.5s-0.7,1.5-1.5,1.6c0,0,0,0,0,0
	C358.7,149.9,358,149.2,358,148.4C358,148.4,358,148.4,358,148.4z M360.6,148.4c0-0.6-0.5-1-1.1-0.9c-0.6,0-1,0.5-0.9,1.1
	c0,0.5,0.5,0.9,1,0.9C360.1,149.4,360.6,149,360.6,148.4C360.6,148.4,360.6,148.4,360.6,148.4z"/>
<path class="st6" d="M361.9,146.9h0.5v0.6c0.2-0.4,0.5-0.6,0.9-0.6c0.4,0,0.8,0.2,0.9,0.6c0.2-0.4,0.6-0.6,1-0.6c0.6,0,1,0.4,1,1
	c0,0,0,0.1,0,0.1v1.9h-0.4V148c0-0.5-0.2-0.7-0.6-0.7c-0.4,0-0.8,0.3-0.8,0.8c0,0,0,0.1,0,0.1v1.6h-0.5V148c0-0.5-0.2-0.7-0.6-0.7
	c-0.4,0-0.8,0.3-0.8,0.8c0,0,0,0.1,0,0.1v1.6H362L361.9,146.9z"/>
<path class="st6" d="M317.3,156.7c0-0.8,0.6-1.5,1.4-1.5c0,0,0,0,0.1,0c0.4,0,0.9,0.2,1.1,0.5l-0.4,0.3c-0.2-0.2-0.5-0.4-0.8-0.4
	c-0.6,0.1-1,0.6-1,1.2c0,0.5,0.5,0.9,1,1c0.3,0,0.6-0.1,0.8-0.4l0.3,0.3c-0.3,0.4-0.7,0.5-1.2,0.5
	C318,158.2,317.3,157.6,317.3,156.7C317.3,156.7,317.3,156.7,317.3,156.7z"/>
<path class="st6" d="M322.5,156.4c0-0.6-0.2-0.8-0.7-0.8c-0.3,0-0.7,0.1-0.9,0.4l-0.3-0.3c0.3-0.4,0.7-0.6,1.2-0.6
	c0.6,0,1.1,0.4,1.1,1c0,0.1,0,0.1,0,0.2v1.8h-0.5v-0.4c-0.2,0.3-0.6,0.5-1,0.5c-0.6,0-1.1-0.3-1.1-0.9s0.5-0.9,1.1-0.9L322.5,156.4
	L322.5,156.4z M321.7,156.9c-0.4,0-0.7,0.1-0.7,0.5s0.2,0.5,0.7,0.5s0.8-0.2,0.8-0.6v-0.4H321.7z"/>
<path class="st6" d="M324,155.3h0.5v0.6c0.2-0.4,0.5-0.6,0.9-0.6c0.4,0,0.8,0.2,0.9,0.6c0.2-0.4,0.6-0.6,1-0.6c0.6,0,1,0.4,1,1
	c0,0,0,0.1,0,0.1v1.9h-0.5v-1.8c0-0.5-0.2-0.7-0.6-0.7s-0.8,0.3-0.8,0.9v1.6h-0.5v-1.8c0-0.5-0.2-0.7-0.6-0.7
	c-0.4,0-0.8,0.3-0.8,0.8c0,0,0,0.1,0,0.1v1.6H324L324,155.3z"/>
<path class="st6" d="M330.7,157.8c0.3,0,0.7-0.1,0.9-0.4l0.3,0.3c-0.3,0.3-0.8,0.5-1.2,0.5c-0.8,0.1-1.6-0.5-1.7-1.3
	s0.5-1.6,1.3-1.7c0.1,0,0.2,0,0.3,0c0.8,0,1.5,0.6,1.5,1.4c0,0.1,0,0.2,0,0.2h-2.5C329.7,157.5,330.1,157.9,330.7,157.8
	C330.7,157.8,330.7,157.8,330.7,157.8z M331.6,156.5c0-0.5-0.4-0.9-0.9-0.9c0,0,0,0-0.1,0c-0.5,0-0.9,0.4-1,0.9H331.6z"/>
<path class="st6" d="M332.9,155.3h0.5v0.6c0.1-0.4,0.5-0.6,0.9-0.6c0.2,0,0.4,0,0.5,0.1l-0.2,0.4c-0.1-0.1-0.3-0.1-0.4-0.1
	c-0.4,0-0.8,0.3-0.8,1v1.5h-0.5L332.9,155.3z"/>
<path class="st6" d="M337.1,156.4c0-0.6-0.2-0.8-0.7-0.8c-0.3,0-0.6,0.1-0.8,0.4l-0.3-0.3c0.3-0.4,0.7-0.6,1.2-0.6
	c0.6,0,1.1,0.4,1.1,1c0,0.1,0,0.1,0,0.2v1.8h-0.5v-0.4c-0.2,0.3-0.6,0.5-1,0.5c-0.6,0-1.1-0.3-1.1-0.9s0.5-0.9,1.1-0.9L337.1,156.4
	L337.1,156.4z M336.2,156.9c-0.4,0-0.6,0.1-0.6,0.5s0.2,0.5,0.7,0.5s0.8-0.2,0.8-0.6v-0.4H336.2z"/>
<path class="st6" d="M340.3,155.3h0.5v0.6c0.1-0.4,0.5-0.6,0.9-0.6c0.2,0,0.4,0,0.5,0.1l-0.2,0.4c-0.1-0.1-0.3-0.1-0.4-0.1
	c-0.4,0-0.8,0.3-0.8,1v1.5h-0.5L340.3,155.3z"/>
<path class="st6" d="M342.5,156.7c0-0.8,0.7-1.5,1.5-1.6c0.8,0,1.5,0.7,1.6,1.5s-0.7,1.5-1.5,1.6c0,0,0,0,0,0
	C343.2,158.2,342.5,157.6,342.5,156.7C342.5,156.7,342.5,156.7,342.5,156.7z M345.1,156.7c0-0.6-0.5-1-1.1-0.9c-0.6,0-1,0.5-0.9,1.1
	c0,0.5,0.5,0.9,1,0.9C344.6,157.8,345.1,157.4,345.1,156.7C345.1,156.8,345.1,156.7,345.1,156.7z"/>
<path class="st6" d="M346.5,153.1h0.5v5h-0.5V153.1z"/>
<path class="st6" d="M348,153.1h0.5v5H348V153.1z"/>
<path class="st6" d="M349.4,157.9c0-0.2,0.2-0.4,0.4-0.4c0.2,0,0.4,0.2,0.4,0.4c0,0,0,0,0,0c0,0.2-0.2,0.4-0.4,0.4
	C349.6,158.2,349.4,158.1,349.4,157.9z"/>
<path class="st6" d="M392.2,140.5l0.4-0.2c0.2,0.5,0.7,0.8,1.2,0.7c0.6,0,1-0.3,1-0.8s-0.3-0.7-0.9-1l-0.4-0.2c-0.7-0.3-1-0.6-1-1.3
	c0-0.6,0.5-1.1,1.2-1.1c0,0,0.1,0,0.1,0c0.5,0,1,0.2,1.3,0.7l-0.4,0.2c-0.2-0.3-0.5-0.5-0.9-0.5c-0.4,0-0.7,0.2-0.8,0.6
	c0,0,0,0.1,0,0.1c0,0.4,0.2,0.6,0.8,0.9l0.4,0.2c0.8,0.4,1.2,0.7,1.2,1.4c0,0.7-0.6,1.3-1.3,1.3c0,0-0.1,0-0.1,0
	C393.2,141.5,392.5,141.1,392.2,140.5z"/>
<path class="st6" d="M396.1,140c0-0.8,0.6-1.5,1.5-1.5c0,0,0,0,0,0c0.4,0,0.9,0.2,1.1,0.5l-0.4,0.3c-0.2-0.2-0.5-0.4-0.8-0.4
	c-0.6,0-1.1,0.5-1.1,1.1s0.5,1.1,1.1,1.1c0.3,0,0.6-0.1,0.8-0.4l0.3,0.3c-0.3,0.4-0.7,0.5-1.2,0.5
	C396.8,141.5,396.1,140.8,396.1,140C396.1,140,396.1,140,396.1,140z"/>
<path class="st6" d="M399.5,138.5h0.5v0.6c0.1-0.4,0.5-0.6,0.8-0.6c0.2,0,0.4,0,0.5,0.1l-0.2,0.4c-0.1-0.1-0.3-0.1-0.4-0.1
	c-0.4,0-0.8,0.3-0.8,1v1.5h-0.5L399.5,138.5z"/>
<path class="st6" d="M401.8,140c0-0.8,0.7-1.5,1.5-1.6c0.8,0,1.5,0.7,1.6,1.5s-0.7,1.5-1.5,1.6c0,0,0,0,0,0
	C402.5,141.5,401.8,140.8,401.8,140C401.8,140,401.8,140,401.8,140z M404.4,140c0-0.6-0.5-1-1.1-0.9c-0.6,0-1,0.5-0.9,1.1
	c0,0.5,0.5,0.9,1,0.9C403.9,141,404.3,140.6,404.4,140C404.3,140,404.3,140,404.4,140L404.4,140z"/>
<path class="st6" d="M405.7,136.4h0.5v5h-0.5V136.4z"/>
<path class="st6" d="M407.3,136.4h0.5v5h-0.5L407.3,136.4z"/>
<path class="st6" d="M410.7,140.5v-1.6h-0.4v-0.4h0.4V137h0.5v1.5h0.8v0.4h-0.8v1.6c0,0.4,0.1,0.5,0.3,0.5c0.1,0,0.3-0.1,0.4-0.2
	l0.3,0.3c-0.2,0.2-0.4,0.3-0.7,0.3C411,141.5,410.7,141.2,410.7,140.5z"/>
<path class="st6" d="M412.9,136.4h0.5v2.7c0.2-0.4,0.6-0.6,1-0.6c0.6,0,1.1,0.4,1.1,1c0,0.1,0,0.1,0,0.2v1.8h-0.5v-1.7
	c0-0.5-0.2-0.8-0.7-0.8c-0.5,0-0.9,0.3-0.9,0.8c0,0,0,0.1,0,0.1v1.6h-0.5L412.9,136.4z"/>
<path class="st6" d="M416.5,138.5h0.5v0.6c0.1-0.4,0.5-0.6,0.8-0.6c0.2,0,0.4,0,0.5,0.1l-0.2,0.4c-0.1-0.1-0.3-0.1-0.4-0.1
	c-0.4,0-0.8,0.3-0.8,1v1.5h-0.5L416.5,138.5z"/>
<path class="st6" d="M418.7,140c0-0.8,0.7-1.5,1.5-1.6c0.8,0,1.5,0.7,1.6,1.5s-0.7,1.5-1.5,1.6c0,0,0,0,0,0
	C419.4,141.5,418.7,140.8,418.7,140C418.7,140,418.7,140,418.7,140z M421.3,140c0-0.6-0.5-1-1.1-0.9c-0.6,0-1,0.5-0.9,1.1
	c0,0.5,0.5,0.9,1,0.9C420.8,141,421.3,140.6,421.3,140C421.3,140,421.3,140,421.3,140z"/>
<path class="st6" d="M422.6,140.3v-1.8h0.5v1.7c0,0.5,0.2,0.8,0.7,0.8c0.5,0,0.9-0.3,0.9-0.8c0,0,0-0.1,0-0.1v-1.6h0.5v2.9h-0.5
	v-0.6c-0.2,0.4-0.6,0.6-1,0.6c-0.6,0-1.1-0.4-1.1-1C422.6,140.4,422.6,140.3,422.6,140.3z"/>
<path class="st6" d="M428.8,138.5v0.4h-0.6c0.1,0.2,0.2,0.4,0.2,0.6c0,0.6-0.4,1-1,1c0,0-0.1,0-0.1,0c-0.2,0-0.4,0-0.6-0.1
	c-0.1,0-0.2,0.1-0.2,0.3c0,0.2,0.1,0.3,0.4,0.3l0.7,0.1c0.8,0.1,1.2,0.4,1.2,0.9s-0.6,1-1.5,1s-1.5-0.4-1.5-1c0-0.4,0.3-0.6,0.7-0.8
	c-0.2-0.1-0.4-0.3-0.4-0.5c0-0.2,0.2-0.5,0.4-0.5c-0.2-0.2-0.3-0.4-0.3-0.7c0-0.6,0.5-1,1.1-1c0,0,0,0,0.1,0c0.1,0,0.3,0,0.4,0.1
	L428.8,138.5z M426.3,142c0,0.4,0.3,0.6,1,0.6s1-0.2,1-0.6s-0.2-0.5-0.8-0.5h-0.7C426.5,141.5,426.3,141.7,426.3,142z M428,139.5
	c0-0.4-0.4-0.7-0.8-0.6c-0.3,0-0.6,0.3-0.6,0.6c0,0.4,0.4,0.7,0.8,0.6C427.7,140.1,428,139.8,428,139.5z"/>
<path class="st6" d="M429.5,136.4h0.5v2.7c0.2-0.4,0.6-0.6,1-0.6c0.6,0,1.1,0.4,1.1,1c0,0.1,0,0.1,0,0.2v1.8h-0.5v-1.7
	c0-0.5-0.2-0.8-0.7-0.8c-0.5,0-0.9,0.3-0.9,0.8c0,0,0,0.1,0,0.1v1.6h-0.5L429.5,136.4z"/>
<path class="st6" d="M434.6,140c0-0.8,0.6-1.5,1.4-1.5c0,0,0,0,0.1,0c0.4,0,0.9,0.2,1.1,0.5l-0.4,0.3c-0.2-0.2-0.5-0.4-0.8-0.4
	c-0.6,0-1.1,0.5-1.1,1.1s0.5,1.1,1.1,1.1c0.3,0,0.6-0.1,0.8-0.4l0.3,0.3c-0.3,0.4-0.7,0.5-1.2,0.5
	C435.3,141.5,434.6,140.8,434.6,140C434.6,140,434.6,140,434.6,140z"/>
<path class="st6" d="M439.8,139.6c0-0.6-0.3-0.8-0.7-0.8c-0.3,0-0.7,0.1-0.9,0.4L438,139c0.3-0.4,0.7-0.6,1.2-0.6
	c0.6,0,1.1,0.4,1.1,1c0,0.1,0,0.1,0,0.2v1.8h-0.5V141c-0.2,0.3-0.6,0.5-1,0.5c-0.6,0-1.1-0.3-1.1-0.9s0.5-0.9,1.1-0.9L439.8,139.6
	L439.8,139.6z M438.9,140.1c-0.4,0-0.7,0.1-0.7,0.5s0.2,0.5,0.7,0.5s0.8-0.2,0.8-0.6v-0.4H438.9z"/>
<path class="st6" d="M441.3,138.5h0.5v0.6c0.2-0.4,0.5-0.6,0.9-0.6c0.4,0,0.8,0.2,0.9,0.6c0.2-0.4,0.6-0.6,1-0.6c0.6,0,1,0.4,1,1
	c0,0,0,0.1,0,0.1v1.9h-0.5v-1.8c0-0.5-0.2-0.7-0.6-0.7c-0.4,0-0.8,0.3-0.8,0.8c0,0,0,0.1,0,0.1v1.6h-0.5v-1.8c0-0.5-0.2-0.7-0.6-0.7
	c-0.4,0-0.8,0.3-0.8,0.8c0,0,0,0.1,0,0.1v1.6h-0.5L441.3,138.5z"/>
<path class="st6" d="M448,141.1c0.3,0,0.7-0.1,0.9-0.4l0.3,0.3c-0.3,0.3-0.8,0.5-1.2,0.5c-0.8,0.1-1.6-0.5-1.7-1.3s0.5-1.6,1.3-1.7
	c0.1,0,0.2,0,0.3,0c0.8,0,1.5,0.6,1.5,1.4c0,0.1,0,0.2,0,0.2h-2.5C447,140.7,447.4,141.1,448,141.1C448,141.1,448,141.1,448,141.1z
	 M448.9,139.8c0-0.5-0.4-0.9-0.9-0.9c0,0-0.1,0-0.1,0c-0.5,0-0.9,0.4-1,0.9H448.9z"/>
<path class="st6" d="M450.2,138.5h0.5v0.6c0.1-0.4,0.5-0.6,0.8-0.6c0.2,0,0.4,0,0.5,0.1l-0.2,0.4c-0.1-0.1-0.3-0.1-0.4-0.1
	c-0.4,0-0.8,0.3-0.8,1v1.5h-0.5L450.2,138.5z"/>
<path class="st6" d="M454.4,139.6c0-0.6-0.2-0.8-0.7-0.8c-0.3,0-0.6,0.1-0.8,0.4l-0.3-0.3c0.3-0.4,0.7-0.6,1.2-0.6
	c0.6,0,1.1,0.4,1.1,1c0,0.1,0,0.1,0,0.2v1.8h-0.5V141c-0.2,0.3-0.6,0.5-1,0.5c-0.6,0-1.1-0.3-1.1-0.9s0.5-0.9,1.1-0.9L454.4,139.6
	L454.4,139.6z M453.5,140.1c-0.4,0-0.6,0.1-0.6,0.5s0.2,0.5,0.7,0.5s0.8-0.2,0.8-0.6v-0.4H453.5z"/>
<path class="st6" d="M457.6,138.5h0.5v0.6c0.1-0.4,0.5-0.6,0.8-0.6c0.2,0,0.4,0,0.5,0.1l-0.2,0.4c-0.1-0.1-0.3-0.1-0.4-0.1
	c-0.4,0-0.8,0.3-0.8,1v1.5h-0.5L457.6,138.5z"/>
<path class="st6" d="M459.8,140c0-0.8,0.7-1.5,1.5-1.6c0.8,0,1.5,0.7,1.6,1.5s-0.7,1.5-1.5,1.6c0,0,0,0,0,0
	C460.5,141.5,459.8,140.8,459.8,140C459.8,140,459.8,140,459.8,140z M462.4,140c0-0.6-0.4-1-0.9-1.1c0,0-0.1,0-0.1,0
	c-0.6,0-1.1,0.5-1.1,1.1s0.5,1.1,1.1,1.1c0.6,0,1-0.4,1-1C462.4,140,462.4,140,462.4,140L462.4,140z"/>
<path class="st6" d="M463.8,136.4h0.5v5h-0.5V136.4z"/>
<path class="st6" d="M465.4,136.4h0.5v5h-0.5V136.4z"/>
<path class="st6" d="M468.7,140.5v-1.6h-0.4v-0.4h0.4V137h0.5v1.5h0.8v0.4h-0.8v1.6c0,0.4,0.1,0.5,0.3,0.5c0.1,0,0.3-0.1,0.4-0.2
	l0.3,0.3c-0.2,0.2-0.4,0.3-0.7,0.3C469.1,141.5,468.7,141.2,468.7,140.5z"/>
<path class="st6" d="M470.7,140c0-0.8,0.7-1.5,1.5-1.6c0.8,0,1.5,0.7,1.6,1.5s-0.7,1.5-1.5,1.6c0,0,0,0,0,0
	C471.4,141.5,470.7,140.8,470.7,140C470.7,140,470.7,140,470.7,140z M473.3,140c0-0.6-0.5-1-1.1-0.9c-0.6,0-1,0.5-0.9,1.1
	c0,0.5,0.5,0.9,1,0.9C472.8,141,473.3,140.6,473.3,140C473.3,140,473.3,140,473.3,140z"/>
<path class="st6" d="M398.6,149.2l0.4-0.2c0.2,0.3,0.5,0.5,0.8,0.5c0.4,0,0.6-0.2,0.6-0.4s-0.2-0.4-0.8-0.5s-0.9-0.3-0.9-0.9
	s0.4-0.8,1-0.8c0.4,0,0.8,0.1,1,0.5l-0.3,0.2c-0.1-0.2-0.4-0.3-0.6-0.3c-0.3,0-0.5,0.1-0.5,0.4s0.2,0.4,0.7,0.5s1,0.3,1,0.9
	s-0.3,0.9-1.1,0.9C399.4,149.9,398.8,149.7,398.6,149.2z"/>
<path class="st6" d="M403.1,149.4c0.3,0,0.7-0.1,0.9-0.4l0.3,0.3c-0.3,0.3-0.8,0.5-1.2,0.5c-0.8,0.1-1.6-0.6-1.6-1.4
	c-0.1-0.8,0.6-1.6,1.4-1.6s1.6,0.6,1.6,1.4c0,0.1,0,0.2,0,0.3H402C402,149.1,402.5,149.5,403.1,149.4
	C403.1,149.4,403.1,149.4,403.1,149.4z M404,148.1c0-0.5-0.4-0.9-0.9-0.9c0,0,0,0-0.1,0c-0.5,0-0.9,0.4-1,0.9H404z"/>
<path class="st6" d="M405.3,144.7h0.5v5.1h-0.5L405.3,144.7z"/>
<path class="st6" d="M408.3,149.4c0.3,0,0.7-0.1,0.9-0.4l0.3,0.3c-0.3,0.3-0.8,0.5-1.2,0.5c-0.8,0.1-1.6-0.6-1.6-1.4
	c-0.1-0.8,0.6-1.6,1.4-1.6s1.6,0.6,1.6,1.4c0,0.1,0,0.2,0,0.3h-2.5C407.2,149.1,407.7,149.5,408.3,149.4
	C408.3,149.4,408.3,149.4,408.3,149.4z M409.2,148.1c0-0.5-0.4-0.9-0.9-0.9c0,0,0,0-0.1,0c-0.5,0-0.9,0.4-1,0.9H409.2z"/>
<path class="st6" d="M410.3,148.4c0-0.8,0.6-1.5,1.4-1.5c0,0,0,0,0.1,0c0.4,0,0.9,0.2,1.1,0.5l-0.4,0.3c-0.2-0.2-0.5-0.4-0.8-0.4
	c-0.6,0.1-1,0.6-1,1.2c0,0.5,0.5,0.9,1,1c0.3,0,0.6-0.1,0.8-0.4l0.3,0.3c-0.3,0.4-0.7,0.5-1.2,0.5
	C411,149.9,410.3,149.2,410.3,148.4C410.3,148.4,410.3,148.4,410.3,148.4z"/>
<path class="st6" d="M414,148.9v-1.6h-0.4v-0.4h0.4v-1.5h0.5v1.5h0.8v0.4h-0.8v1.6c0,0.4,0.1,0.5,0.3,0.5c0.1,0,0.3-0.1,0.4-0.2
	l0.3,0.3c-0.2,0.2-0.4,0.3-0.7,0.3C414.3,149.9,414,149.6,414,148.9z"/>
<path class="st6" d="M417.7,145.7c0-0.2,0.2-0.4,0.4-0.4s0.4,0.2,0.4,0.4l0,0c0,0.2-0.2,0.4-0.4,0.4S417.7,145.9,417.7,145.7z
	 M417.8,146.9h0.5v2.9h-0.5L417.8,146.9z"/>
<path class="st6" d="M419.4,146.9h0.4v0.6c0.2-0.4,0.5-0.6,0.9-0.6c0.4,0,0.8,0.2,0.9,0.6c0.2-0.4,0.6-0.6,1-0.6c0.6,0,1,0.4,1,1
	c0,0,0,0.1,0,0.1v1.9h-0.5V148c0-0.5-0.2-0.7-0.6-0.7c-0.4,0-0.8,0.3-0.8,0.8c0,0,0,0.1,0,0.1v1.6h-0.5V148c0-0.5-0.2-0.7-0.6-0.7
	c-0.4,0-0.8,0.3-0.8,0.8c0,0,0,0.1,0,0.1v1.6h-0.5L419.4,146.9z"/>
<path class="st6" d="M426.4,148c0-0.6-0.2-0.8-0.7-0.8c-0.3,0-0.7,0.1-0.9,0.4l-0.3-0.3c0.3-0.4,0.7-0.6,1.2-0.6
	c0.6,0,1.1,0.4,1.1,1c0,0.1,0,0.1,0,0.2v1.8h-0.5v-0.4c-0.2,0.3-0.6,0.5-1,0.5c-0.6,0-1.1-0.3-1.1-0.9s0.5-0.9,1.1-0.9L426.4,148
	L426.4,148z M425.6,148.5c-0.4,0-0.7,0.1-0.7,0.5s0.2,0.5,0.7,0.5s0.8-0.2,0.8-0.6v-0.4H425.6z"/>
<path class="st6" d="M430.5,146.9v0.4H430c0.2,0.2,0.2,0.4,0.2,0.6c0,0.6-0.4,1-1,1c0,0-0.1,0-0.1,0c-0.2,0-0.4,0-0.6-0.1
	c-0.1,0-0.2,0.1-0.2,0.3c0,0.2,0.1,0.3,0.4,0.3l0.7,0.1c0.8,0.1,1.2,0.4,1.2,0.9s-0.6,1-1.5,1s-1.5-0.4-1.5-0.9
	c0-0.4,0.3-0.6,0.7-0.8c-0.2-0.1-0.4-0.3-0.4-0.5c0-0.2,0.2-0.5,0.4-0.5c-0.2-0.2-0.3-0.4-0.3-0.7c0-0.6,0.5-1,1.1-1c0,0,0,0,0.1,0
	c0.1,0,0.3,0,0.4,0.1L430.5,146.9z M428,150.4c0,0.4,0.3,0.6,1,0.6s1-0.2,1-0.6s-0.2-0.5-0.8-0.5h-0.7
	C428.2,149.9,428,150.1,428,150.4z M429.7,147.9c0-0.4-0.4-0.7-0.8-0.6c-0.3,0-0.6,0.3-0.6,0.6c0,0.4,0.4,0.7,0.8,0.6
	C429.4,148.4,429.7,148.2,429.7,147.9z"/>
<path class="st6" d="M432.5,149.4c0.3,0,0.7-0.1,0.9-0.4l0.3,0.3c-0.3,0.3-0.8,0.5-1.2,0.5c-0.8,0.1-1.6-0.5-1.7-1.3
	s0.5-1.6,1.3-1.7c0.1,0,0.2,0,0.3,0c0.8,0,1.5,0.6,1.5,1.4c0,0.1,0,0.2,0,0.2h-2.5C431.5,149.1,431.9,149.5,432.5,149.4
	C432.5,149.4,432.5,149.4,432.5,149.4z M433.4,148.1c0-0.5-0.4-0.9-0.9-0.9c0,0,0,0-0.1,0c-0.5,0-0.9,0.4-1,0.9H433.4z"/>
<path class="st6" d="M434.5,149.2l0.4-0.2c0.2,0.3,0.5,0.5,0.8,0.5c0.4,0,0.6-0.2,0.6-0.4s-0.2-0.4-0.8-0.5s-0.9-0.3-0.9-0.9
	s0.4-0.8,1-0.8c0.4,0,0.8,0.2,1,0.5l-0.3,0.2c-0.1-0.2-0.4-0.3-0.6-0.3c-0.3,0-0.5,0.1-0.5,0.4s0.2,0.4,0.7,0.5s1,0.3,1,0.9
	s-0.3,0.9-1,0.9C435.3,149.9,434.7,149.7,434.5,149.2z"/>
<path class="st6" d="M439.1,148.4c0-0.8,0.7-1.5,1.5-1.6c0.8,0,1.5,0.7,1.6,1.5s-0.7,1.5-1.5,1.6c0,0,0,0,0,0
	C439.8,149.9,439.1,149.2,439.1,148.4C439.1,148.4,439.1,148.4,439.1,148.4z M441.6,148.4c0-0.6-0.5-1-1.1-0.9c-0.6,0-1,0.5-0.9,1.1
	c0,0.5,0.5,0.9,1,0.9C441.2,149.4,441.6,149,441.6,148.4C441.6,148.4,441.6,148.4,441.6,148.4z"/>
<path class="st6" d="M443,146.9h0.5v0.6c0.1-0.4,0.5-0.6,0.8-0.6c0.2,0,0.4,0,0.5,0.1l-0.2,0.4c-0.1-0.1-0.3-0.1-0.4-0.1
	c-0.4,0-0.8,0.3-0.8,1v1.5H443L443,146.9z"/>
<path class="st6" d="M447,145.7c0-0.2,0.2-0.4,0.4-0.4s0.4,0.2,0.4,0.4l0,0c0,0.2-0.2,0.4-0.4,0.4S447,145.9,447,145.7z
	 M447.1,146.9h0.5v2.9h-0.5V146.9z"/>
<path class="st6" d="M448.7,146.9h0.5v0.6c0.2-0.4,0.5-0.6,0.9-0.6c0.4,0,0.8,0.2,0.9,0.6c0.2-0.4,0.6-0.6,1-0.6c0.6,0,1,0.4,1,1
	c0,0,0,0.1,0,0.1v1.9h-0.5V148c0-0.5-0.2-0.7-0.6-0.7s-0.8,0.3-0.8,0.9v1.6h-0.5V148c0-0.5-0.2-0.7-0.6-0.7c-0.4,0-0.8,0.3-0.8,0.8
	c0,0,0,0.1,0,0.1v1.6h-0.5L448.7,146.9z"/>
<path class="st6" d="M455.8,148c0-0.6-0.2-0.8-0.7-0.8c-0.3,0-0.7,0.1-0.9,0.4l-0.3-0.3c0.3-0.4,0.7-0.6,1.2-0.6
	c0.6,0,1.1,0.4,1.1,1c0,0.1,0,0.1,0,0.2v1.8h-0.5v-0.4c-0.2,0.3-0.6,0.5-1,0.5c-0.6,0-1.1-0.3-1.1-0.9s0.5-0.9,1.1-0.9L455.8,148
	L455.8,148z M454.9,148.5c-0.4,0-0.7,0.1-0.7,0.5s0.2,0.5,0.7,0.5s0.8-0.2,0.8-0.6v-0.4H454.9z"/>
<path class="st6" d="M459.9,146.9v0.4h-0.6c0.2,0.2,0.2,0.4,0.2,0.6c0,0.6-0.4,1-1,1c0,0-0.1,0-0.1,0c-0.2,0-0.4,0-0.6-0.1
	c-0.1,0-0.2,0.1-0.2,0.3c0,0.2,0.1,0.3,0.4,0.3l0.7,0.1c0.8,0.1,1.2,0.4,1.2,0.9s-0.6,1-1.5,1s-1.5-0.4-1.5-0.9
	c0-0.4,0.3-0.6,0.7-0.8c-0.2-0.1-0.4-0.3-0.4-0.5c0-0.2,0.2-0.5,0.4-0.5c-0.2-0.2-0.3-0.4-0.3-0.7c0-0.6,0.5-1,1.1-1c0,0,0,0,0,0
	c0.1,0,0.3,0,0.4,0.1L459.9,146.9z M457.4,150.4c0,0.4,0.3,0.6,1,0.6s1-0.2,1-0.6s-0.2-0.5-0.8-0.5h-0.7
	C457.6,149.9,457.4,150.1,457.4,150.4z M459.1,147.9c0-0.4-0.4-0.7-0.8-0.6c-0.3,0-0.6,0.3-0.6,0.6c0,0.4,0.4,0.7,0.8,0.6
	C458.8,148.4,459,148.2,459.1,147.9z"/>
<path class="st6" d="M461.8,149.4c0.3,0,0.7-0.1,0.9-0.4l0.3,0.3c-0.3,0.3-0.8,0.5-1.2,0.5c-0.8,0.1-1.6-0.6-1.6-1.4
	c-0.1-0.8,0.6-1.6,1.4-1.6s1.6,0.6,1.6,1.4c0,0.1,0,0.2,0,0.3h-2.4C460.8,149.1,461.3,149.5,461.8,149.4z M462.7,148.1
	c0-0.5-0.4-0.9-0.9-0.9c0,0,0,0-0.1,0c-0.5,0-0.9,0.4-1,0.9H462.7z"/>
<path class="st6" d="M463.8,149.2l0.4-0.2c0.2,0.3,0.5,0.5,0.8,0.5c0.4,0,0.6-0.2,0.6-0.4s-0.2-0.4-0.8-0.5s-0.9-0.3-0.9-0.9
	s0.4-0.8,1-0.8c0.4,0,0.8,0.1,1,0.5l-0.3,0.2c-0.1-0.2-0.4-0.3-0.6-0.3c-0.3,0-0.5,0.1-0.5,0.4s0.2,0.4,0.7,0.5s1,0.3,1,0.9
	s-0.3,0.9-1,0.9C464.6,149.9,464.1,149.7,463.8,149.2z"/>
<path class="st6" d="M466.8,149.5c0-0.2,0.2-0.4,0.4-0.4c0.2,0,0.4,0.2,0.4,0.4c0,0.2-0.2,0.4-0.4,0.4
	C467,149.8,466.8,149.7,466.8,149.5z"/>
<path class="st6" d="M498.2,139c0-1.4,1.1-2.5,2.4-2.5c1.4,0,2.5,1.1,2.5,2.4c0,1.4-1.1,2.5-2.4,2.5c0,0,0,0,0,0
	C499.3,141.5,498.2,140.4,498.2,139C498.2,139.1,498.2,139.1,498.2,139z M502.6,139c0-1.1-0.9-1.9-2-1.8c-1.1,0-1.9,0.9-1.8,2
	c0,1,0.9,1.8,1.9,1.8c1,0,1.9-0.8,1.9-1.9C502.6,139.1,502.6,139.1,502.6,139z"/>
<path class="st6" d="M504,138.5h0.5v0.6c0.2-0.4,0.6-0.7,1-0.7c0.6,0,1.1,0.4,1.1,1c0,0.1,0,0.1,0,0.2v1.8H506v-1.7
	c0-0.5-0.2-0.8-0.7-0.8c-0.5,0-0.9,0.3-0.9,0.8c0,0,0,0.1,0,0.1v1.6h-0.5L504,138.5z"/>
<path class="st6" d="M507.4,140c0-0.8,0.6-1.5,1.4-1.5c0,0,0,0,0.1,0c0.4,0,0.9,0.2,1.1,0.5l-0.3,0.3c-0.2-0.2-0.5-0.4-0.8-0.4
	c-0.6,0-1.1,0.5-1.1,1.1s0.5,1.1,1.1,1.1c0.3,0,0.6-0.1,0.8-0.4l0.3,0.3c-0.3,0.4-0.7,0.5-1.2,0.5
	C508.1,141.5,507.4,140.8,507.4,140C507.4,140,507.4,140,507.4,140z"/>
<path class="st6" d="M512.2,141.1c0.3,0,0.7-0.1,0.9-0.4l0.3,0.3c-0.3,0.3-0.8,0.5-1.2,0.5c-0.8,0.1-1.6-0.6-1.6-1.4
	c-0.1-0.8,0.6-1.6,1.4-1.6c0.8-0.1,1.6,0.6,1.6,1.4c0,0.1,0,0.2,0,0.3h-2.5C511.1,140.7,511.6,141.1,512.2,141.1
	C512.2,141.1,512.2,141.1,512.2,141.1z M513.1,139.8c0-0.5-0.4-0.9-0.9-0.9c0,0,0,0-0.1,0c-0.5,0-0.9,0.4-1,0.9H513.1z"/>
<path class="st6" d="M516,137.3c0-0.2,0.2-0.4,0.4-0.4c0.2,0,0.3,0.2,0.3,0.4s-0.2,0.4-0.3,0.4C516.1,137.7,516,137.5,516,137.3z
	 M516.1,138.5h0.5v2.9h-0.5V138.5z"/>
<path class="st6" d="M517.6,138.5h0.5v0.6c0.2-0.4,0.5-0.6,0.9-0.6c0.4,0,0.8,0.2,0.9,0.6c0.2-0.4,0.6-0.6,1-0.6c0.6,0,1,0.4,1,1
	c0,0,0,0.1,0,0.1v1.9h-0.5v-1.8c0-0.5-0.2-0.7-0.6-0.7s-0.8,0.3-0.8,0.9v1.6h-0.5v-1.8c0-0.5-0.2-0.7-0.6-0.7
	c-0.4,0-0.8,0.3-0.8,0.8c0,0,0,0.1,0,0.1v1.6h-0.5L517.6,138.5z"/>
<path class="st6" d="M524.7,139.6c0-0.6-0.2-0.8-0.7-0.8c-0.3,0-0.7,0.1-0.8,0.4l-0.3-0.3c0.3-0.4,0.7-0.6,1.2-0.6
	c0.6,0,1.1,0.4,1.1,1c0,0.1,0,0.1,0,0.2v1.8h-0.5V141c-0.2,0.3-0.6,0.5-1,0.5c-0.6,0-1.1-0.3-1.1-0.9s0.5-0.9,1.1-0.9L524.7,139.6
	L524.7,139.6z M523.8,140.1c-0.4,0-0.7,0.1-0.7,0.5s0.2,0.5,0.7,0.5s0.8-0.2,0.8-0.6v-0.4H523.8z"/>
<path class="st6" d="M528.8,138.5v0.4h-0.6c0.2,0.2,0.2,0.4,0.2,0.6c0,0.6-0.4,1-1,1c0,0-0.1,0-0.1,0c-0.2,0-0.4,0-0.6-0.1
	c-0.1,0-0.2,0.1-0.2,0.3c0,0.2,0.1,0.3,0.4,0.3l0.7,0.1c0.8,0.1,1.2,0.4,1.2,0.9s-0.6,1-1.5,1s-1.5-0.4-1.5-1c0-0.4,0.3-0.6,0.7-0.8
	c-0.2-0.1-0.4-0.3-0.4-0.5c0-0.2,0.2-0.5,0.4-0.5c-0.2-0.2-0.3-0.4-0.3-0.7c0-0.6,0.5-1,1.1-1c0,0,0,0,0,0c0.1,0,0.3,0,0.4,0.1
	L528.8,138.5z M526.3,142c0,0.4,0.3,0.6,1,0.6s1-0.2,1-0.6s-0.2-0.5-0.8-0.5h-0.7C526.5,141.5,526.3,141.7,526.3,142z M528,139.5
	c0-0.4-0.4-0.7-0.8-0.6c-0.3,0-0.6,0.3-0.6,0.6c0,0.4,0.4,0.7,0.8,0.6C527.7,140.1,528,139.8,528,139.5z"/>
<path class="st6" d="M530.8,141.1c0.3,0,0.7-0.1,0.9-0.4l0.3,0.3c-0.3,0.3-0.8,0.5-1.2,0.5c-0.8,0.1-1.6-0.5-1.7-1.3
	s0.5-1.6,1.3-1.7c0.1,0,0.2,0,0.3,0c0.8,0,1.5,0.6,1.5,1.4c0,0.1,0,0.2,0,0.2h-2.5C529.7,140.7,530.2,141.1,530.8,141.1
	C530.8,141.1,530.8,141.1,530.8,141.1z M531.7,139.8c0-0.5-0.4-0.9-0.9-0.9c0,0,0,0-0.1,0c-0.5,0-0.9,0.4-1,0.9H531.7z"/>
<path class="st6" d="M534.6,137.3c0-0.2,0.2-0.4,0.3-0.4c0.2,0,0.4,0.2,0.4,0.4s-0.2,0.4-0.4,0.4
	C534.7,137.7,534.6,137.5,534.6,137.3z M534.7,138.5h0.5v2.9h-0.5V138.5z"/>
<path class="st6" d="M535.9,140.8l0.4-0.2c0.2,0.3,0.5,0.5,0.8,0.5c0.4,0,0.6-0.2,0.6-0.4s-0.2-0.4-0.8-0.5s-0.9-0.3-0.9-0.9
	s0.4-0.8,1-0.8c0.4,0,0.8,0.2,1,0.5l-0.3,0.3c-0.1-0.2-0.4-0.3-0.6-0.3c-0.3,0-0.5,0.1-0.5,0.4s0.2,0.4,0.7,0.5s1,0.3,1,0.9
	s-0.3,0.9-1,0.9C536.7,141.5,536.2,141.3,535.9,140.8z"/>
<path class="st6" d="M540.5,140.8l0.4-0.2c0.2,0.3,0.5,0.5,0.8,0.5c0.4,0,0.6-0.2,0.6-0.4s-0.2-0.4-0.8-0.5s-0.9-0.3-0.9-0.9
	s0.4-0.8,1-0.8c0.4,0,0.8,0.1,1,0.5l-0.3,0.3c-0.1-0.2-0.4-0.3-0.6-0.3c-0.3,0-0.5,0.1-0.5,0.4s0.2,0.4,0.7,0.5s1,0.3,1,0.9
	s-0.3,0.9-1,0.9C541.3,141.5,540.7,141.3,540.5,140.8z"/>
<path class="st6" d="M545,141.1c0.3,0,0.7-0.1,0.9-0.4l0.3,0.3c-0.3,0.3-0.8,0.5-1.2,0.5c-0.8,0.1-1.6-0.5-1.7-1.3s0.5-1.6,1.3-1.7
	c0.1,0,0.2,0,0.3,0c0.8,0,1.5,0.6,1.5,1.4c0,0.1,0,0.2,0,0.2h-2.5C543.9,140.7,544.4,141.1,545,141.1C545,141.1,545,141.1,545,141.1
	z M545.9,139.8c0-0.5-0.4-0.9-0.9-0.9c0,0-0.1,0-0.1,0c-0.5,0-0.9,0.4-1,0.9H545.9z"/>
<path class="st6" d="M547.2,136.4h0.5v5h-0.5V136.4z"/>
<path class="st6" d="M550.2,141.1c0.3,0,0.7-0.1,0.9-0.4l0.3,0.3c-0.3,0.3-0.8,0.5-1.2,0.5c-0.8,0.1-1.6-0.5-1.7-1.3
	s0.5-1.6,1.3-1.7c0.1,0,0.2,0,0.3,0c0.8,0,1.5,0.6,1.5,1.4c0,0.1,0,0.2,0,0.2h-2.5C549.1,140.7,549.6,141.1,550.2,141.1
	C550.2,141.1,550.2,141.1,550.2,141.1z M551.1,139.8c0-0.5-0.4-0.9-0.9-0.9c0,0-0.1,0-0.1,0c-0.5,0-0.9,0.4-1,0.9H551.1z"/>
<path class="st6" d="M552.2,140c0-0.8,0.6-1.5,1.4-1.5c0,0,0,0,0.1,0c0.4,0,0.9,0.2,1.1,0.5l-0.3,0.3c-0.2-0.2-0.5-0.4-0.8-0.4
	c-0.6,0-1.1,0.5-1.1,1.1s0.5,1.1,1.1,1.1c0.3,0,0.6-0.1,0.8-0.4l0.3,0.3c-0.3,0.4-0.7,0.5-1.2,0.5
	C552.9,141.5,552.2,140.8,552.2,140C552.2,140,552.2,140,552.2,140z"/>
<path class="st6" d="M555.9,140.5v-1.6h-0.5v-0.4h0.5V137h0.5v1.5h0.8v0.4h-0.8v1.6c0,0.4,0.1,0.5,0.3,0.5c0.2,0,0.3-0.1,0.4-0.2
	l0.3,0.3c-0.2,0.2-0.4,0.3-0.7,0.3C556.2,141.5,555.9,141.2,555.9,140.5z"/>
<path class="st6" d="M559.4,141.1c0.3,0,0.7-0.1,0.9-0.4l0.3,0.3c-0.3,0.3-0.8,0.5-1.2,0.5c-0.8,0.1-1.6-0.5-1.7-1.3
	s0.5-1.6,1.3-1.7c0.1,0,0.2,0,0.3,0c0.8,0,1.5,0.6,1.5,1.4c0,0.1,0,0.2,0,0.2h-2.5C558.4,140.7,558.8,141.1,559.4,141.1
	C559.4,141.1,559.4,141.1,559.4,141.1z M560.3,139.8c0-0.5-0.4-0.9-0.9-0.9c0,0-0.1,0-0.1,0c-0.5,0-0.9,0.4-1,0.9H560.3z"/>
<path class="st6" d="M561.4,140c0-0.8,0.6-1.5,1.4-1.5c0,0,0,0,0,0c0.5,0,0.9,0.2,1.1,0.7v-2.8h0.5v5H564v-0.6
	c-0.2,0.4-0.6,0.7-1.1,0.7C562.1,141.4,561.4,140.8,561.4,140C561.4,140,561.4,140,561.4,140z M564,140c0-0.6-0.4-1-0.9-1.1
	c0,0,0,0-0.1,0c-0.6,0-1,0.4-1,1c0,0,0,0,0,0.1c0,0.6,0.4,1,0.9,1.1c0,0,0.1,0,0.1,0C563.5,141,564,140.6,564,140
	C564,140,564,140,564,140L564,140z"/>
<path class="st6" d="M498.9,145h1.1c1-0.1,1.8,0.7,1.9,1.7c0.1,1-0.7,1.8-1.7,1.9c-0.1,0-0.2,0-0.3,0h-0.6v1.2h-0.5V145z
	 M499.9,148.2c1.1,0,1.5-0.6,1.5-1.3s-0.4-1.3-1.5-1.3h-0.5v2.7H499.9z"/>
<path class="st6" d="M502.4,148.4c0-0.8,0.7-1.5,1.5-1.6c0.8,0,1.5,0.7,1.6,1.5c0,0.8-0.7,1.5-1.5,1.6c0,0,0,0,0,0
	C503.1,149.9,502.5,149.2,502.4,148.4C502.4,148.4,502.4,148.4,502.4,148.4z M505,148.4c0-0.6-0.5-1-1.1-0.9c-0.6,0-1,0.5-0.9,1.1
	c0,0.5,0.5,0.9,1,0.9C504.6,149.4,505,149,505,148.4C505,148.4,505,148.4,505,148.4z"/>
<path class="st6" d="M506.1,149.2l0.4-0.2c0.2,0.3,0.5,0.5,0.8,0.5c0.4,0,0.6-0.2,0.6-0.4s-0.2-0.4-0.8-0.5s-0.9-0.3-0.9-0.9
	s0.4-0.8,1-0.8c0.4,0,0.8,0.2,1,0.5l-0.3,0.2c-0.1-0.2-0.4-0.3-0.6-0.3c-0.3,0-0.5,0.1-0.5,0.4s0.2,0.4,0.7,0.5s1,0.3,1,0.9
	s-0.3,0.9-1,0.9C506.9,149.9,506.3,149.7,506.1,149.2z"/>
<path class="st6" d="M509.3,148.9v-1.6h-0.5v-0.4h0.5v-1.5h0.5v1.5h0.8v0.4h-0.8v1.6c0,0.4,0.1,0.5,0.3,0.5c0.1,0,0.3-0.1,0.4-0.2
	l0.3,0.3c-0.2,0.2-0.4,0.3-0.7,0.3C509.6,149.9,509.3,149.6,509.3,148.9z"/>
<path class="st6" d="M513.6,149.2v0.6h-0.5v-5.1h0.5v2.8c0.2-0.4,0.6-0.7,1.1-0.7c0.8,0.1,1.4,0.8,1.3,1.7c-0.1,0.7-0.6,1.2-1.3,1.3
	C514.2,149.8,513.8,149.6,513.6,149.2z M515.6,148.3c0-0.6-0.4-1-0.9-1.1c0,0,0,0-0.1,0c-0.6,0.1-1,0.6-1,1.2c0,0.5,0.5,0.9,1,1
	c0.6,0,1-0.4,1-1C515.6,148.4,515.6,148.4,515.6,148.3L515.6,148.3z"/>
<path class="st6" d="M516.9,148.7v-1.8h0.5v1.7c0,0.5,0.2,0.8,0.7,0.8c0.5,0,0.9-0.3,0.9-0.8c0,0,0-0.1,0-0.1v-1.6h0.5v2.9H519v-0.6
	c-0.2,0.4-0.6,0.6-1,0.6c-0.6,0-1.1-0.4-1.1-1C516.9,148.8,516.9,148.8,516.9,148.7z"/>
<path class="st6" d="M520.8,148.9v-1.6h-0.5v-0.4h0.5v-1.5h0.5v1.5h0.8v0.4h-0.8v1.6c0,0.4,0.1,0.5,0.3,0.5c0.1,0,0.3-0.1,0.4-0.2
	l0.3,0.3c-0.2,0.2-0.4,0.3-0.7,0.3C521.1,149.9,520.8,149.6,520.8,148.9z"/>
<path class="st6" d="M523.1,148.9v-1.6h-0.5v-0.4h0.5v-1.5h0.5v1.5h0.8v0.4h-0.8v1.6c0,0.4,0.1,0.5,0.3,0.5c0.1,0,0.3-0.1,0.4-0.2
	l0.3,0.3c-0.2,0.2-0.4,0.3-0.7,0.3C523.4,149.9,523.1,149.6,523.1,148.9z"/>
<path class="st6" d="M525,148.4c0-0.8,0.7-1.5,1.5-1.6c0.8,0,1.5,0.7,1.6,1.5c0,0.8-0.7,1.5-1.5,1.6c0,0,0,0,0,0
	C525.8,149.9,525.1,149.2,525,148.4C525.1,148.4,525,148.4,525,148.4z M527.6,148.4c0-0.6-0.5-1-1.1-0.9c-0.6,0-1,0.5-0.9,1.1
	c0,0.5,0.5,0.9,1,0.9C527.2,149.4,527.6,149,527.6,148.4C527.6,148.4,527.6,148.4,527.6,148.4z"/>
<path class="st6" d="M529,146.9h0.5v0.6c0.2-0.4,0.6-0.7,1-0.7c0.6,0,1.1,0.4,1.1,1c0,0.1,0,0.1,0,0.2v1.8H531v-1.7
	c0-0.5-0.2-0.8-0.7-0.8c-0.5,0-0.9,0.3-0.9,0.8c0,0,0,0.1,0,0.1v1.6h-0.5L529,146.9z"/>
<path class="st6" d="M536,148c0-0.6-0.3-0.8-0.7-0.8c-0.3,0-0.7,0.1-0.8,0.4l-0.3-0.3c0.3-0.4,0.7-0.6,1.2-0.6c0.6,0,1.1,0.4,1.1,1
	c0,0.1,0,0.1,0,0.2v1.8H536v-0.4c-0.2,0.3-0.6,0.5-1,0.5c-0.6,0-1.1-0.3-1.1-0.9s0.5-0.9,1.1-0.9L536,148L536,148z M535.2,148.5
	c-0.4,0-0.7,0.1-0.7,0.5s0.2,0.5,0.7,0.5s0.8-0.2,0.8-0.6v-0.4H535.2z"/>
<path class="st6" d="M537.5,146.9h0.5v0.6c0.2-0.4,0.6-0.7,1.1-0.7c0.8,0.1,1.4,0.8,1.3,1.7c-0.1,0.7-0.6,1.2-1.3,1.3
	c-0.5,0-0.9-0.2-1.1-0.7v2.1h-0.5L537.5,146.9z M540,148.3c0-0.6-0.4-1-0.9-1.1c0,0,0,0-0.1,0c-0.6,0.1-1,0.6-1,1.2
	c0,0.5,0.5,0.9,1,1C539.6,149.4,540,149,540,148.3C540,148.4,540,148.4,540,148.3z"/>
<path class="st6" d="M541.4,146.9h0.5v0.6c0.2-0.4,0.7-0.7,1.1-0.7c0.8,0.1,1.4,0.8,1.3,1.7c-0.1,0.7-0.6,1.2-1.3,1.3
	c-0.5,0-0.9-0.2-1.1-0.7v2.1h-0.5L541.4,146.9z M543.9,148.3c0-0.6-0.4-1-0.9-1.1c0,0,0,0-0.1,0c-0.6,0.1-1,0.6-1,1.2
	c0,0.5,0.5,0.9,1,1C543.4,149.4,543.9,149,543.9,148.3C543.9,148.4,543.9,148.4,543.9,148.3z"/>
<path class="st6" d="M546.6,149.4c0.3,0,0.7-0.1,0.9-0.4l0.3,0.3c-0.3,0.3-0.8,0.5-1.2,0.5c-0.8,0.1-1.6-0.5-1.7-1.3
	s0.5-1.6,1.3-1.7c0.1,0,0.2,0,0.3,0c0.8,0,1.5,0.6,1.5,1.4c0,0.1,0,0.2,0,0.2h-2.5C545.6,149.1,546.1,149.5,546.6,149.4
	C546.6,149.4,546.6,149.4,546.6,149.4z M547.5,148.1c0-0.5-0.4-0.9-0.9-0.9c0,0,0,0-0.1,0c-0.5,0-0.9,0.4-1,0.9H547.5z"/>
<path class="st6" d="M550.6,148c0-0.6-0.2-0.8-0.7-0.8c-0.3,0-0.7,0.1-0.8,0.4l-0.3-0.3c0.3-0.4,0.7-0.6,1.2-0.6
	c0.6,0,1.1,0.4,1.1,1c0,0.1,0,0.1,0,0.2v1.8h-0.5v-0.4c-0.2,0.3-0.6,0.5-1,0.5c-0.6,0-1.1-0.3-1.1-0.9s0.5-0.9,1.1-0.9L550.6,148
	L550.6,148z M549.7,148.5c-0.4,0-0.7,0.1-0.7,0.5s0.2,0.5,0.7,0.5s0.8-0.2,0.8-0.6v-0.4H549.7z"/>
<path class="st6" d="M552.1,146.9h0.5v0.6c0.1-0.4,0.5-0.6,0.8-0.6c0.2,0,0.4,0,0.5,0.1l-0.2,0.4c-0.1-0.1-0.3-0.1-0.4-0.1
	c-0.4,0-0.8,0.3-0.8,1v1.5h-0.5L552.1,146.9z"/>
<path class="st6" d="M554.2,149.2l0.4-0.2c0.2,0.3,0.5,0.5,0.8,0.5c0.4,0,0.6-0.2,0.6-0.4s-0.3-0.4-0.8-0.5s-0.9-0.3-0.9-0.9
	s0.4-0.8,1-0.8c0.4,0,0.8,0.1,1,0.5l-0.3,0.2c-0.1-0.2-0.4-0.3-0.6-0.3c-0.3,0-0.5,0.1-0.5,0.4s0.2,0.4,0.7,0.5s1,0.3,1,0.9
	s-0.3,0.9-1.1,0.9C555.1,149.9,554.5,149.7,554.2,149.2z"/>
<path class="st6" d="M559.2,148.9v-1.6h-0.4v-0.4h0.5v-1.5h0.5v1.5h0.8v0.4h-0.8v1.6c0,0.4,0.1,0.5,0.3,0.5c0.1,0,0.3-0.1,0.4-0.2
	l0.3,0.3c-0.2,0.2-0.4,0.3-0.7,0.3C559.5,149.9,559.2,149.6,559.2,148.9z"/>
<path class="st6" d="M561.2,148.4c0-0.9,0.6-1.6,1.5-1.6c0.9,0,1.6,0.6,1.6,1.5s-0.6,1.6-1.5,1.6c0,0,0,0,0,0
	C561.9,149.9,561.2,149.2,561.2,148.4C561.2,148.4,561.2,148.4,561.2,148.4z M563.7,148.4c0-0.6-0.5-1-1.1-0.9c-0.6,0-1,0.5-0.9,1.1
	c0,0.5,0.5,0.9,1,0.9c0.6,0,1-0.4,1.1-0.9C563.8,148.4,563.8,148.4,563.7,148.4L563.7,148.4z"/>
<path class="st6" d="M508.1,155.7h-0.5v-0.4h0.5V154c0-0.6,0.3-0.9,0.8-0.9c0.3,0,0.5,0.1,0.7,0.3l-0.3,0.3
	c-0.1-0.1-0.2-0.2-0.3-0.2c-0.2,0-0.4,0.1-0.4,0.5v1.3h1.8v2.9h-0.5v-2.5h-1.3v2.5h-0.5L508.1,155.7z M509.8,154.1
	c0-0.2,0.2-0.3,0.3-0.4c0.2,0,0.3,0.2,0.3,0.4c0,0.2-0.2,0.3-0.3,0.3C509.9,154.5,509.8,154.3,509.8,154.1
	C509.8,154.1,509.8,154.1,509.8,154.1L509.8,154.1z"/>
<path class="st6" d="M511.4,155.3h0.5v0.6c0.2-0.4,0.6-0.7,1-0.7c0.6,0,1.1,0.4,1.1,1c0,0.1,0,0.1,0,0.2v1.8h-0.5v-1.7
	c0-0.5-0.2-0.8-0.7-0.8c-0.5,0-0.9,0.3-0.9,0.8c0,0,0,0.1,0,0.1v1.6h-0.5L511.4,155.3z"/>
<path class="st6" d="M514.9,154.1c0-0.2,0.2-0.3,0.3-0.4c0.2,0,0.3,0.2,0.3,0.4c0,0.2-0.2,0.3-0.3,0.3
	C515.1,154.5,514.9,154.3,514.9,154.1C514.9,154.1,514.9,154.1,514.9,154.1z M515,155.3h0.5v2.9H515V155.3z"/>
<path class="st6" d="M516.3,157.6l0.4-0.2c0.2,0.3,0.5,0.5,0.8,0.5c0.4,0,0.6-0.2,0.6-0.4s-0.3-0.4-0.8-0.5s-0.9-0.3-0.9-0.9
	s0.4-0.8,1-0.8c0.4,0,0.8,0.1,1,0.5l-0.3,0.2c-0.1-0.2-0.4-0.3-0.6-0.3c-0.3,0-0.5,0.1-0.5,0.4s0.2,0.4,0.7,0.5s1,0.3,1,0.9
	s-0.3,0.9-1.1,0.9C517.1,158.3,516.6,158,516.3,157.6z"/>
<path class="st6" d="M519.4,153.1h0.5v2.7c0.2-0.4,0.6-0.6,1-0.6c0.6,0,1.1,0.4,1.1,1c0,0.1,0,0.1,0,0.2v1.8h-0.5v-1.7
	c0-0.5-0.2-0.8-0.7-0.8c-0.5,0-0.9,0.3-0.9,0.8c0,0,0,0.1,0,0.1v1.6h-0.5L519.4,153.1z"/>
<path class="st6" d="M524.9,157.3v-1.6h-0.5v-0.4h0.5v-1.5h0.5v1.5h0.8v0.4h-0.8v1.6c0,0.4,0.1,0.5,0.3,0.5c0.1,0,0.3-0.1,0.4-0.2
	l0.3,0.3c-0.2,0.2-0.4,0.3-0.7,0.3C525.2,158.3,524.9,158,524.9,157.3z"/>
<path class="st6" d="M527,153.1h0.5v2.7c0.2-0.4,0.6-0.6,1-0.6c0.6,0,1.1,0.4,1.1,1c0,0.1,0,0.1,0,0.2v1.8h-0.5v-1.7
	c0-0.5-0.2-0.8-0.7-0.8c-0.5,0-0.9,0.3-0.9,0.8c0,0,0,0.1,0,0.1v1.6H527L527,153.1z"/>
<path class="st6" d="M532,157.8c0.3,0,0.7-0.1,0.9-0.4l0.3,0.3c-0.3,0.3-0.8,0.5-1.2,0.5c-0.8,0.1-1.6-0.5-1.7-1.3s0.5-1.6,1.3-1.7
	c0.1,0,0.2,0,0.3,0c0.8,0,1.5,0.6,1.5,1.4c0,0.1,0,0.2,0,0.2H531C531,157.5,531.5,157.9,532,157.8C532,157.8,532,157.8,532,157.8z
	 M532.9,156.5c0-0.5-0.4-0.9-0.9-0.9c0,0-0.1,0-0.1,0c-0.5,0-0.9,0.4-1,0.9H532.9z"/>
<path class="st6" d="M535.9,155.3h0.5v0.6c0.1-0.4,0.5-0.6,0.8-0.6c0.2,0,0.4,0,0.5,0.1l-0.2,0.4c-0.1-0.1-0.3-0.1-0.4-0.1
	c-0.4,0-0.8,0.3-0.8,1v1.5h-0.5L535.9,155.3z"/>
<path class="st6" d="M539.7,157.8c0.3,0,0.7-0.1,0.9-0.4l0.3,0.3c-0.3,0.3-0.8,0.5-1.2,0.5c-0.8,0.1-1.6-0.5-1.7-1.3
	s0.5-1.6,1.3-1.7c0.1,0,0.2,0,0.3,0c0.8,0,1.5,0.6,1.5,1.4c0,0.1,0,0.2,0,0.2h-2.5C538.7,157.5,539.2,157.9,539.7,157.8
	C539.7,157.8,539.7,157.8,539.7,157.8z M540.6,156.5c0-0.5-0.4-0.9-0.9-0.9c0,0,0,0-0.1,0c-0.5,0-0.9,0.4-1,0.9H540.6z"/>
<path class="st6" d="M541.5,155.3h0.5l0.8,1.7c0.1,0.2,0.1,0.3,0.2,0.5c0-0.2,0.1-0.3,0.2-0.5l0.8-1.7h0.5l-1.4,3h-0.1L541.5,155.3z
	"/>
<path class="st6" d="M545,154.1c0-0.2,0.2-0.4,0.4-0.4c0.2,0,0.3,0.2,0.3,0.4l0,0c0,0.2-0.2,0.4-0.3,0.4
	C545.1,154.5,545,154.3,545,154.1z M545.1,155.3h0.5v2.9h-0.5V155.3z"/>
<path class="st6" d="M548,157.8c0.3,0,0.7-0.1,0.9-0.4l0.3,0.3c-0.3,0.3-0.8,0.5-1.2,0.5c-0.8,0.1-1.6-0.6-1.6-1.4
	c-0.1-0.8,0.6-1.6,1.4-1.6s1.6,0.6,1.6,1.4c0,0.1,0,0.2,0,0.3h-2.5C547,157.5,547.5,157.9,548,157.8C548,157.8,548,157.8,548,157.8z
	 M548.9,156.5c0-0.5-0.4-0.9-0.9-0.9c0,0,0,0-0.1,0c-0.5,0-0.9,0.4-1,0.9H548.9z"/>
<path class="st6" d="M549.9,155.3h0.5l0.6,1.6c0.1,0.1,0.1,0.3,0.1,0.4c0-0.2,0.1-0.3,0.1-0.4l0.8-1.6h0.1l0.8,1.6
	c0.1,0.1,0.1,0.3,0.2,0.4c0-0.2,0.1-0.3,0.1-0.4l0.6-1.6h0.5l-1.2,3H553l-0.8-1.7c-0.1-0.1-0.1-0.3-0.1-0.4c0,0.1-0.1,0.3-0.1,0.4
	l-0.8,1.7h-0.1L549.9,155.3z"/>
<path class="st6" d="M554.3,157.9c0-0.2,0.2-0.4,0.4-0.4c0.2,0,0.4,0.2,0.4,0.4c0,0,0,0,0,0c0,0.2-0.2,0.4-0.4,0.4l0,0
	C554.5,158.2,554.3,158.1,554.3,157.9z"/>
</svg>
